<?xml version="1.0" encoding="utf-8" standalone="no"?>
<!DOCTYPE svg PUBLIC "-//W3C//DTD SVG 1.1//EN"
  "http://www.w3.org/Graphics/SVG/1.1/DTD/svg11.dtd">
<!-- Created with matplotlib (https://matplotlib.org/) -->
<svg height="345.6pt" version="1.1" viewBox="0 0 460.8 345.6" width="460.8pt" xmlns="http://www.w3.org/2000/svg" xmlns:xlink="http://www.w3.org/1999/xlink">
 <metadata>
  <rdf:RDF xmlns:cc="http://creativecommons.org/ns#" xmlns:dc="http://purl.org/dc/elements/1.1/" xmlns:rdf="http://www.w3.org/1999/02/22-rdf-syntax-ns#">
   <cc:Work>
    <dc:type rdf:resource="http://purl.org/dc/dcmitype/StillImage"/>
    <dc:date>2021-01-09T17:31:25.706360</dc:date>
    <dc:format>image/svg+xml</dc:format>
    <dc:creator>
     <cc:Agent>
      <dc:title>Matplotlib v3.3.3, https://matplotlib.org/</dc:title>
     </cc:Agent>
    </dc:creator>
   </cc:Work>
  </rdf:RDF>
 </metadata>
 <defs>
  <style type="text/css">*{stroke-linecap:butt;stroke-linejoin:round;}</style>
 </defs>
 <g id="figure_1">
  <g id="patch_1">
   <path d="M 0 345.6 
L 460.8 345.6 
L 460.8 0 
L 0 0 
z
" style="fill:#ffffff;"/>
  </g>
  <g id="axes_1">
   <g id="patch_2">
    <path d="M 57.6 307.584 
L 414.72 307.584 
L 414.72 41.472 
L 57.6 41.472 
z
"/>
   </g>
   <g id="matplotlib.axis_1">
    <g id="xtick_1">
     <g id="line2d_1">
      <path clip-path="url(#p6b3063c1db)" d="M 72.940819 307.584 
L 72.940819 41.472 
" style="fill:none;stroke:#4d4d4d;stroke-linecap:square;stroke-width:0.8;"/>
     </g>
     <g id="line2d_2">
      <defs>
       <path d="M 0 0 
L 0 3.5 
" id="m4ca1d1799d" style="stroke:#000000;stroke-width:0.8;"/>
      </defs>
      <g>
       <use style="stroke:#000000;stroke-width:0.8;" x="72.940819" xlink:href="#m4ca1d1799d" y="307.584"/>
      </g>
     </g>
     <g id="text_1">
      <!-- 2020-01 -->
      <g transform="translate(52.049413 322.182437)scale(0.1 -0.1)">
       <defs>
        <path d="M 19.1875 8.296875 
L 53.609375 8.296875 
L 53.609375 0 
L 7.328125 0 
L 7.328125 8.296875 
Q 12.9375 14.109375 22.625 23.890625 
Q 32.328125 33.6875 34.8125 36.53125 
Q 39.546875 41.84375 41.421875 45.53125 
Q 43.3125 49.21875 43.3125 52.78125 
Q 43.3125 58.59375 39.234375 62.25 
Q 35.15625 65.921875 28.609375 65.921875 
Q 23.96875 65.921875 18.8125 64.3125 
Q 13.671875 62.703125 7.8125 59.421875 
L 7.8125 69.390625 
Q 13.765625 71.78125 18.9375 73 
Q 24.125 74.21875 28.421875 74.21875 
Q 39.75 74.21875 46.484375 68.546875 
Q 53.21875 62.890625 53.21875 53.421875 
Q 53.21875 48.921875 51.53125 44.890625 
Q 49.859375 40.875 45.40625 35.40625 
Q 44.1875 33.984375 37.640625 27.21875 
Q 31.109375 20.453125 19.1875 8.296875 
z
" id="DejaVuSans-50"/>
        <path d="M 31.78125 66.40625 
Q 24.171875 66.40625 20.328125 58.90625 
Q 16.5 51.421875 16.5 36.375 
Q 16.5 21.390625 20.328125 13.890625 
Q 24.171875 6.390625 31.78125 6.390625 
Q 39.453125 6.390625 43.28125 13.890625 
Q 47.125 21.390625 47.125 36.375 
Q 47.125 51.421875 43.28125 58.90625 
Q 39.453125 66.40625 31.78125 66.40625 
z
M 31.78125 74.21875 
Q 44.046875 74.21875 50.515625 64.515625 
Q 56.984375 54.828125 56.984375 36.375 
Q 56.984375 17.96875 50.515625 8.265625 
Q 44.046875 -1.421875 31.78125 -1.421875 
Q 19.53125 -1.421875 13.0625 8.265625 
Q 6.59375 17.96875 6.59375 36.375 
Q 6.59375 54.828125 13.0625 64.515625 
Q 19.53125 74.21875 31.78125 74.21875 
z
" id="DejaVuSans-48"/>
        <path d="M 4.890625 31.390625 
L 31.203125 31.390625 
L 31.203125 23.390625 
L 4.890625 23.390625 
z
" id="DejaVuSans-45"/>
        <path d="M 12.40625 8.296875 
L 28.515625 8.296875 
L 28.515625 63.921875 
L 10.984375 60.40625 
L 10.984375 69.390625 
L 28.421875 72.90625 
L 38.28125 72.90625 
L 38.28125 8.296875 
L 54.390625 8.296875 
L 54.390625 0 
L 12.40625 0 
z
" id="DejaVuSans-49"/>
       </defs>
       <use xlink:href="#DejaVuSans-50"/>
       <use x="63.623047" xlink:href="#DejaVuSans-48"/>
       <use x="127.246094" xlink:href="#DejaVuSans-50"/>
       <use x="190.869141" xlink:href="#DejaVuSans-48"/>
       <use x="254.492188" xlink:href="#DejaVuSans-45"/>
       <use x="290.576172" xlink:href="#DejaVuSans-48"/>
       <use x="354.199219" xlink:href="#DejaVuSans-49"/>
      </g>
     </g>
    </g>
    <g id="xtick_2">
     <g id="line2d_3">
      <path clip-path="url(#p6b3063c1db)" d="M 126.455305 307.584 
L 126.455305 41.472 
" style="fill:none;stroke:#4d4d4d;stroke-linecap:square;stroke-width:0.8;"/>
     </g>
     <g id="line2d_4">
      <g>
       <use style="stroke:#000000;stroke-width:0.8;" x="126.455305" xlink:href="#m4ca1d1799d" y="307.584"/>
      </g>
     </g>
     <g id="text_2">
      <!-- 2020-03 -->
      <g transform="translate(105.563898 322.182437)scale(0.1 -0.1)">
       <defs>
        <path d="M 40.578125 39.3125 
Q 47.65625 37.796875 51.625 33 
Q 55.609375 28.21875 55.609375 21.1875 
Q 55.609375 10.40625 48.1875 4.484375 
Q 40.765625 -1.421875 27.09375 -1.421875 
Q 22.515625 -1.421875 17.65625 -0.515625 
Q 12.796875 0.390625 7.625 2.203125 
L 7.625 11.71875 
Q 11.71875 9.328125 16.59375 8.109375 
Q 21.484375 6.890625 26.8125 6.890625 
Q 36.078125 6.890625 40.9375 10.546875 
Q 45.796875 14.203125 45.796875 21.1875 
Q 45.796875 27.640625 41.28125 31.265625 
Q 36.765625 34.90625 28.71875 34.90625 
L 20.21875 34.90625 
L 20.21875 43.015625 
L 29.109375 43.015625 
Q 36.375 43.015625 40.234375 45.921875 
Q 44.09375 48.828125 44.09375 54.296875 
Q 44.09375 59.90625 40.109375 62.90625 
Q 36.140625 65.921875 28.71875 65.921875 
Q 24.65625 65.921875 20.015625 65.03125 
Q 15.375 64.15625 9.8125 62.3125 
L 9.8125 71.09375 
Q 15.4375 72.65625 20.34375 73.4375 
Q 25.25 74.21875 29.59375 74.21875 
Q 40.828125 74.21875 47.359375 69.109375 
Q 53.90625 64.015625 53.90625 55.328125 
Q 53.90625 49.265625 50.4375 45.09375 
Q 46.96875 40.921875 40.578125 39.3125 
z
" id="DejaVuSans-51"/>
       </defs>
       <use xlink:href="#DejaVuSans-50"/>
       <use x="63.623047" xlink:href="#DejaVuSans-48"/>
       <use x="127.246094" xlink:href="#DejaVuSans-50"/>
       <use x="190.869141" xlink:href="#DejaVuSans-48"/>
       <use x="254.492188" xlink:href="#DejaVuSans-45"/>
       <use x="290.576172" xlink:href="#DejaVuSans-48"/>
       <use x="354.199219" xlink:href="#DejaVuSans-51"/>
      </g>
     </g>
    </g>
    <g id="xtick_3">
     <g id="line2d_5">
      <path clip-path="url(#p6b3063c1db)" d="M 180.861698 307.584 
L 180.861698 41.472 
" style="fill:none;stroke:#4d4d4d;stroke-linecap:square;stroke-width:0.8;"/>
     </g>
     <g id="line2d_6">
      <g>
       <use style="stroke:#000000;stroke-width:0.8;" x="180.861698" xlink:href="#m4ca1d1799d" y="307.584"/>
      </g>
     </g>
     <g id="text_3">
      <!-- 2020-05 -->
      <g transform="translate(159.970292 322.182437)scale(0.1 -0.1)">
       <defs>
        <path d="M 10.796875 72.90625 
L 49.515625 72.90625 
L 49.515625 64.59375 
L 19.828125 64.59375 
L 19.828125 46.734375 
Q 21.96875 47.46875 24.109375 47.828125 
Q 26.265625 48.1875 28.421875 48.1875 
Q 40.625 48.1875 47.75 41.5 
Q 54.890625 34.8125 54.890625 23.390625 
Q 54.890625 11.625 47.5625 5.09375 
Q 40.234375 -1.421875 26.90625 -1.421875 
Q 22.3125 -1.421875 17.546875 -0.640625 
Q 12.796875 0.140625 7.71875 1.703125 
L 7.71875 11.625 
Q 12.109375 9.234375 16.796875 8.0625 
Q 21.484375 6.890625 26.703125 6.890625 
Q 35.15625 6.890625 40.078125 11.328125 
Q 45.015625 15.765625 45.015625 23.390625 
Q 45.015625 31 40.078125 35.4375 
Q 35.15625 39.890625 26.703125 39.890625 
Q 22.75 39.890625 18.8125 39.015625 
Q 14.890625 38.140625 10.796875 36.28125 
z
" id="DejaVuSans-53"/>
       </defs>
       <use xlink:href="#DejaVuSans-50"/>
       <use x="63.623047" xlink:href="#DejaVuSans-48"/>
       <use x="127.246094" xlink:href="#DejaVuSans-50"/>
       <use x="190.869141" xlink:href="#DejaVuSans-48"/>
       <use x="254.492188" xlink:href="#DejaVuSans-45"/>
       <use x="290.576172" xlink:href="#DejaVuSans-48"/>
       <use x="354.199219" xlink:href="#DejaVuSans-53"/>
      </g>
     </g>
    </g>
    <g id="xtick_4">
     <g id="line2d_7">
      <path clip-path="url(#p6b3063c1db)" d="M 235.268092 307.584 
L 235.268092 41.472 
" style="fill:none;stroke:#4d4d4d;stroke-linecap:square;stroke-width:0.8;"/>
     </g>
     <g id="line2d_8">
      <g>
       <use style="stroke:#000000;stroke-width:0.8;" x="235.268092" xlink:href="#m4ca1d1799d" y="307.584"/>
      </g>
     </g>
     <g id="text_4">
      <!-- 2020-07 -->
      <g transform="translate(214.376686 322.182437)scale(0.1 -0.1)">
       <defs>
        <path d="M 8.203125 72.90625 
L 55.078125 72.90625 
L 55.078125 68.703125 
L 28.609375 0 
L 18.3125 0 
L 43.21875 64.59375 
L 8.203125 64.59375 
z
" id="DejaVuSans-55"/>
       </defs>
       <use xlink:href="#DejaVuSans-50"/>
       <use x="63.623047" xlink:href="#DejaVuSans-48"/>
       <use x="127.246094" xlink:href="#DejaVuSans-50"/>
       <use x="190.869141" xlink:href="#DejaVuSans-48"/>
       <use x="254.492188" xlink:href="#DejaVuSans-45"/>
       <use x="290.576172" xlink:href="#DejaVuSans-48"/>
       <use x="354.199219" xlink:href="#DejaVuSans-55"/>
      </g>
     </g>
    </g>
    <g id="xtick_5">
     <g id="line2d_9">
      <path clip-path="url(#p6b3063c1db)" d="M 290.566394 307.584 
L 290.566394 41.472 
" style="fill:none;stroke:#4d4d4d;stroke-linecap:square;stroke-width:0.8;"/>
     </g>
     <g id="line2d_10">
      <g>
       <use style="stroke:#000000;stroke-width:0.8;" x="290.566394" xlink:href="#m4ca1d1799d" y="307.584"/>
      </g>
     </g>
     <g id="text_5">
      <!-- 2020-09 -->
      <g transform="translate(269.674987 322.182437)scale(0.1 -0.1)">
       <defs>
        <path d="M 10.984375 1.515625 
L 10.984375 10.5 
Q 14.703125 8.734375 18.5 7.8125 
Q 22.3125 6.890625 25.984375 6.890625 
Q 35.75 6.890625 40.890625 13.453125 
Q 46.046875 20.015625 46.78125 33.40625 
Q 43.953125 29.203125 39.59375 26.953125 
Q 35.25 24.703125 29.984375 24.703125 
Q 19.046875 24.703125 12.671875 31.3125 
Q 6.296875 37.9375 6.296875 49.421875 
Q 6.296875 60.640625 12.9375 67.421875 
Q 19.578125 74.21875 30.609375 74.21875 
Q 43.265625 74.21875 49.921875 64.515625 
Q 56.59375 54.828125 56.59375 36.375 
Q 56.59375 19.140625 48.40625 8.859375 
Q 40.234375 -1.421875 26.421875 -1.421875 
Q 22.703125 -1.421875 18.890625 -0.6875 
Q 15.09375 0.046875 10.984375 1.515625 
z
M 30.609375 32.421875 
Q 37.25 32.421875 41.125 36.953125 
Q 45.015625 41.5 45.015625 49.421875 
Q 45.015625 57.28125 41.125 61.84375 
Q 37.25 66.40625 30.609375 66.40625 
Q 23.96875 66.40625 20.09375 61.84375 
Q 16.21875 57.28125 16.21875 49.421875 
Q 16.21875 41.5 20.09375 36.953125 
Q 23.96875 32.421875 30.609375 32.421875 
z
" id="DejaVuSans-57"/>
       </defs>
       <use xlink:href="#DejaVuSans-50"/>
       <use x="63.623047" xlink:href="#DejaVuSans-48"/>
       <use x="127.246094" xlink:href="#DejaVuSans-50"/>
       <use x="190.869141" xlink:href="#DejaVuSans-48"/>
       <use x="254.492188" xlink:href="#DejaVuSans-45"/>
       <use x="290.576172" xlink:href="#DejaVuSans-48"/>
       <use x="354.199219" xlink:href="#DejaVuSans-57"/>
      </g>
     </g>
    </g>
    <g id="xtick_6">
     <g id="line2d_11">
      <path clip-path="url(#p6b3063c1db)" d="M 344.972787 307.584 
L 344.972787 41.472 
" style="fill:none;stroke:#4d4d4d;stroke-linecap:square;stroke-width:0.8;"/>
     </g>
     <g id="line2d_12">
      <g>
       <use style="stroke:#000000;stroke-width:0.8;" x="344.972787" xlink:href="#m4ca1d1799d" y="307.584"/>
      </g>
     </g>
     <g id="text_6">
      <!-- 2020-11 -->
      <g transform="translate(324.081381 322.182437)scale(0.1 -0.1)">
       <use xlink:href="#DejaVuSans-50"/>
       <use x="63.623047" xlink:href="#DejaVuSans-48"/>
       <use x="127.246094" xlink:href="#DejaVuSans-50"/>
       <use x="190.869141" xlink:href="#DejaVuSans-48"/>
       <use x="254.492188" xlink:href="#DejaVuSans-45"/>
       <use x="290.576172" xlink:href="#DejaVuSans-49"/>
       <use x="354.199219" xlink:href="#DejaVuSans-49"/>
      </g>
     </g>
    </g>
    <g id="xtick_7">
     <g id="line2d_13">
      <path clip-path="url(#p6b3063c1db)" d="M 399.379181 307.584 
L 399.379181 41.472 
" style="fill:none;stroke:#4d4d4d;stroke-linecap:square;stroke-width:0.8;"/>
     </g>
     <g id="line2d_14">
      <g>
       <use style="stroke:#000000;stroke-width:0.8;" x="399.379181" xlink:href="#m4ca1d1799d" y="307.584"/>
      </g>
     </g>
     <g id="text_7">
      <!-- 2021-01 -->
      <g transform="translate(378.487775 322.182437)scale(0.1 -0.1)">
       <use xlink:href="#DejaVuSans-50"/>
       <use x="63.623047" xlink:href="#DejaVuSans-48"/>
       <use x="127.246094" xlink:href="#DejaVuSans-50"/>
       <use x="190.869141" xlink:href="#DejaVuSans-49"/>
       <use x="254.492188" xlink:href="#DejaVuSans-45"/>
       <use x="290.576172" xlink:href="#DejaVuSans-48"/>
       <use x="354.199219" xlink:href="#DejaVuSans-49"/>
      </g>
     </g>
    </g>
    <g id="text_8">
     <!-- Date -->
     <g transform="translate(224.209219 335.860562)scale(0.1 -0.1)">
      <defs>
       <path d="M 19.671875 64.796875 
L 19.671875 8.109375 
L 31.59375 8.109375 
Q 46.6875 8.109375 53.6875 14.9375 
Q 60.6875 21.78125 60.6875 36.53125 
Q 60.6875 51.171875 53.6875 57.984375 
Q 46.6875 64.796875 31.59375 64.796875 
z
M 9.8125 72.90625 
L 30.078125 72.90625 
Q 51.265625 72.90625 61.171875 64.09375 
Q 71.09375 55.28125 71.09375 36.53125 
Q 71.09375 17.671875 61.125 8.828125 
Q 51.171875 0 30.078125 0 
L 9.8125 0 
z
" id="DejaVuSans-68"/>
       <path d="M 34.28125 27.484375 
Q 23.390625 27.484375 19.1875 25 
Q 14.984375 22.515625 14.984375 16.5 
Q 14.984375 11.71875 18.140625 8.90625 
Q 21.296875 6.109375 26.703125 6.109375 
Q 34.1875 6.109375 38.703125 11.40625 
Q 43.21875 16.703125 43.21875 25.484375 
L 43.21875 27.484375 
z
M 52.203125 31.203125 
L 52.203125 0 
L 43.21875 0 
L 43.21875 8.296875 
Q 40.140625 3.328125 35.546875 0.953125 
Q 30.953125 -1.421875 24.3125 -1.421875 
Q 15.921875 -1.421875 10.953125 3.296875 
Q 6 8.015625 6 15.921875 
Q 6 25.140625 12.171875 29.828125 
Q 18.359375 34.515625 30.609375 34.515625 
L 43.21875 34.515625 
L 43.21875 35.40625 
Q 43.21875 41.609375 39.140625 45 
Q 35.0625 48.390625 27.6875 48.390625 
Q 23 48.390625 18.546875 47.265625 
Q 14.109375 46.140625 10.015625 43.890625 
L 10.015625 52.203125 
Q 14.9375 54.109375 19.578125 55.046875 
Q 24.21875 56 28.609375 56 
Q 40.484375 56 46.34375 49.84375 
Q 52.203125 43.703125 52.203125 31.203125 
z
" id="DejaVuSans-97"/>
       <path d="M 18.3125 70.21875 
L 18.3125 54.6875 
L 36.8125 54.6875 
L 36.8125 47.703125 
L 18.3125 47.703125 
L 18.3125 18.015625 
Q 18.3125 11.328125 20.140625 9.421875 
Q 21.96875 7.515625 27.59375 7.515625 
L 36.8125 7.515625 
L 36.8125 0 
L 27.59375 0 
Q 17.1875 0 13.234375 3.875 
Q 9.28125 7.765625 9.28125 18.015625 
L 9.28125 47.703125 
L 2.6875 47.703125 
L 2.6875 54.6875 
L 9.28125 54.6875 
L 9.28125 70.21875 
z
" id="DejaVuSans-116"/>
       <path d="M 56.203125 29.59375 
L 56.203125 25.203125 
L 14.890625 25.203125 
Q 15.484375 15.921875 20.484375 11.0625 
Q 25.484375 6.203125 34.421875 6.203125 
Q 39.59375 6.203125 44.453125 7.46875 
Q 49.3125 8.734375 54.109375 11.28125 
L 54.109375 2.78125 
Q 49.265625 0.734375 44.1875 -0.34375 
Q 39.109375 -1.421875 33.890625 -1.421875 
Q 20.796875 -1.421875 13.15625 6.1875 
Q 5.515625 13.8125 5.515625 26.8125 
Q 5.515625 40.234375 12.765625 48.109375 
Q 20.015625 56 32.328125 56 
Q 43.359375 56 49.78125 48.890625 
Q 56.203125 41.796875 56.203125 29.59375 
z
M 47.21875 32.234375 
Q 47.125 39.59375 43.09375 43.984375 
Q 39.0625 48.390625 32.421875 48.390625 
Q 24.90625 48.390625 20.390625 44.140625 
Q 15.875 39.890625 15.1875 32.171875 
z
" id="DejaVuSans-101"/>
      </defs>
      <use xlink:href="#DejaVuSans-68"/>
      <use x="77.001953" xlink:href="#DejaVuSans-97"/>
      <use x="138.28125" xlink:href="#DejaVuSans-116"/>
      <use x="177.490234" xlink:href="#DejaVuSans-101"/>
     </g>
    </g>
   </g>
   <g id="matplotlib.axis_2">
    <g id="ytick_1">
     <g id="line2d_15">
      <path clip-path="url(#p6b3063c1db)" d="M 57.6 267.701365 
L 414.72 267.701365 
" style="fill:none;stroke:#4d4d4d;stroke-linecap:square;stroke-width:0.8;"/>
     </g>
     <g id="line2d_16">
      <defs>
       <path d="M 0 0 
L -3.5 0 
" id="mdf3cc50fcb" style="stroke:#000000;stroke-width:0.8;"/>
      </defs>
      <g>
       <use style="stroke:#000000;stroke-width:0.8;" x="57.6" xlink:href="#mdf3cc50fcb" y="267.701365"/>
      </g>
     </g>
     <g id="text_9">
      <!-- 0.5 -->
      <g transform="translate(34.696875 271.500584)scale(0.1 -0.1)">
       <defs>
        <path d="M 10.6875 12.40625 
L 21 12.40625 
L 21 0 
L 10.6875 0 
z
" id="DejaVuSans-46"/>
       </defs>
       <use xlink:href="#DejaVuSans-48"/>
       <use x="63.623047" xlink:href="#DejaVuSans-46"/>
       <use x="95.410156" xlink:href="#DejaVuSans-53"/>
      </g>
     </g>
    </g>
    <g id="ytick_2">
     <g id="line2d_17">
      <path clip-path="url(#p6b3063c1db)" d="M 57.6 212.323081 
L 414.72 212.323081 
" style="fill:none;stroke:#4d4d4d;stroke-linecap:square;stroke-width:0.8;"/>
     </g>
     <g id="line2d_18">
      <g>
       <use style="stroke:#000000;stroke-width:0.8;" x="57.6" xlink:href="#mdf3cc50fcb" y="212.323081"/>
      </g>
     </g>
     <g id="text_10">
      <!-- 1.0 -->
      <g transform="translate(34.696875 216.1223)scale(0.1 -0.1)">
       <use xlink:href="#DejaVuSans-49"/>
       <use x="63.623047" xlink:href="#DejaVuSans-46"/>
       <use x="95.410156" xlink:href="#DejaVuSans-48"/>
      </g>
     </g>
    </g>
    <g id="ytick_3">
     <g id="line2d_19">
      <path clip-path="url(#p6b3063c1db)" d="M 57.6 156.944796 
L 414.72 156.944796 
" style="fill:none;stroke:#4d4d4d;stroke-linecap:square;stroke-width:0.8;"/>
     </g>
     <g id="line2d_20">
      <g>
       <use style="stroke:#000000;stroke-width:0.8;" x="57.6" xlink:href="#mdf3cc50fcb" y="156.944796"/>
      </g>
     </g>
     <g id="text_11">
      <!-- 1.5 -->
      <g transform="translate(34.696875 160.744015)scale(0.1 -0.1)">
       <use xlink:href="#DejaVuSans-49"/>
       <use x="63.623047" xlink:href="#DejaVuSans-46"/>
       <use x="95.410156" xlink:href="#DejaVuSans-53"/>
      </g>
     </g>
    </g>
    <g id="ytick_4">
     <g id="line2d_21">
      <path clip-path="url(#p6b3063c1db)" d="M 57.6 101.566512 
L 414.72 101.566512 
" style="fill:none;stroke:#4d4d4d;stroke-linecap:square;stroke-width:0.8;"/>
     </g>
     <g id="line2d_22">
      <g>
       <use style="stroke:#000000;stroke-width:0.8;" x="57.6" xlink:href="#mdf3cc50fcb" y="101.566512"/>
      </g>
     </g>
     <g id="text_12">
      <!-- 2.0 -->
      <g transform="translate(34.696875 105.365731)scale(0.1 -0.1)">
       <use xlink:href="#DejaVuSans-50"/>
       <use x="63.623047" xlink:href="#DejaVuSans-46"/>
       <use x="95.410156" xlink:href="#DejaVuSans-48"/>
      </g>
     </g>
    </g>
    <g id="ytick_5">
     <g id="line2d_23">
      <path clip-path="url(#p6b3063c1db)" d="M 57.6 46.188227 
L 414.72 46.188227 
" style="fill:none;stroke:#4d4d4d;stroke-linecap:square;stroke-width:0.8;"/>
     </g>
     <g id="line2d_24">
      <g>
       <use style="stroke:#000000;stroke-width:0.8;" x="57.6" xlink:href="#mdf3cc50fcb" y="46.188227"/>
      </g>
     </g>
     <g id="text_13">
      <!-- 2.5 -->
      <g transform="translate(34.696875 49.987446)scale(0.1 -0.1)">
       <use xlink:href="#DejaVuSans-50"/>
       <use x="63.623047" xlink:href="#DejaVuSans-46"/>
       <use x="95.410156" xlink:href="#DejaVuSans-53"/>
      </g>
     </g>
    </g>
    <g id="text_14">
     <!-- Stock Price -->
     <g transform="translate(28.617187 202.153)rotate(-90)scale(0.1 -0.1)">
      <defs>
       <path d="M 53.515625 70.515625 
L 53.515625 60.890625 
Q 47.90625 63.578125 42.921875 64.890625 
Q 37.9375 66.21875 33.296875 66.21875 
Q 25.25 66.21875 20.875 63.09375 
Q 16.5 59.96875 16.5 54.203125 
Q 16.5 49.359375 19.40625 46.890625 
Q 22.3125 44.4375 30.421875 42.921875 
L 36.375 41.703125 
Q 47.40625 39.59375 52.65625 34.296875 
Q 57.90625 29 57.90625 20.125 
Q 57.90625 9.515625 50.796875 4.046875 
Q 43.703125 -1.421875 29.984375 -1.421875 
Q 24.8125 -1.421875 18.96875 -0.25 
Q 13.140625 0.921875 6.890625 3.21875 
L 6.890625 13.375 
Q 12.890625 10.015625 18.65625 8.296875 
Q 24.421875 6.59375 29.984375 6.59375 
Q 38.421875 6.59375 43.015625 9.90625 
Q 47.609375 13.234375 47.609375 19.390625 
Q 47.609375 24.75 44.3125 27.78125 
Q 41.015625 30.8125 33.5 32.328125 
L 27.484375 33.5 
Q 16.453125 35.6875 11.515625 40.375 
Q 6.59375 45.0625 6.59375 53.421875 
Q 6.59375 63.09375 13.40625 68.65625 
Q 20.21875 74.21875 32.171875 74.21875 
Q 37.3125 74.21875 42.625 73.28125 
Q 47.953125 72.359375 53.515625 70.515625 
z
" id="DejaVuSans-83"/>
       <path d="M 30.609375 48.390625 
Q 23.390625 48.390625 19.1875 42.75 
Q 14.984375 37.109375 14.984375 27.296875 
Q 14.984375 17.484375 19.15625 11.84375 
Q 23.34375 6.203125 30.609375 6.203125 
Q 37.796875 6.203125 41.984375 11.859375 
Q 46.1875 17.53125 46.1875 27.296875 
Q 46.1875 37.015625 41.984375 42.703125 
Q 37.796875 48.390625 30.609375 48.390625 
z
M 30.609375 56 
Q 42.328125 56 49.015625 48.375 
Q 55.71875 40.765625 55.71875 27.296875 
Q 55.71875 13.875 49.015625 6.21875 
Q 42.328125 -1.421875 30.609375 -1.421875 
Q 18.84375 -1.421875 12.171875 6.21875 
Q 5.515625 13.875 5.515625 27.296875 
Q 5.515625 40.765625 12.171875 48.375 
Q 18.84375 56 30.609375 56 
z
" id="DejaVuSans-111"/>
       <path d="M 48.78125 52.59375 
L 48.78125 44.1875 
Q 44.96875 46.296875 41.140625 47.34375 
Q 37.3125 48.390625 33.40625 48.390625 
Q 24.65625 48.390625 19.8125 42.84375 
Q 14.984375 37.3125 14.984375 27.296875 
Q 14.984375 17.28125 19.8125 11.734375 
Q 24.65625 6.203125 33.40625 6.203125 
Q 37.3125 6.203125 41.140625 7.25 
Q 44.96875 8.296875 48.78125 10.40625 
L 48.78125 2.09375 
Q 45.015625 0.34375 40.984375 -0.53125 
Q 36.96875 -1.421875 32.421875 -1.421875 
Q 20.0625 -1.421875 12.78125 6.34375 
Q 5.515625 14.109375 5.515625 27.296875 
Q 5.515625 40.671875 12.859375 48.328125 
Q 20.21875 56 33.015625 56 
Q 37.15625 56 41.109375 55.140625 
Q 45.0625 54.296875 48.78125 52.59375 
z
" id="DejaVuSans-99"/>
       <path d="M 9.078125 75.984375 
L 18.109375 75.984375 
L 18.109375 31.109375 
L 44.921875 54.6875 
L 56.390625 54.6875 
L 27.390625 29.109375 
L 57.625 0 
L 45.90625 0 
L 18.109375 26.703125 
L 18.109375 0 
L 9.078125 0 
z
" id="DejaVuSans-107"/>
       <path id="DejaVuSans-32"/>
       <path d="M 19.671875 64.796875 
L 19.671875 37.40625 
L 32.078125 37.40625 
Q 38.96875 37.40625 42.71875 40.96875 
Q 46.484375 44.53125 46.484375 51.125 
Q 46.484375 57.671875 42.71875 61.234375 
Q 38.96875 64.796875 32.078125 64.796875 
z
M 9.8125 72.90625 
L 32.078125 72.90625 
Q 44.34375 72.90625 50.609375 67.359375 
Q 56.890625 61.8125 56.890625 51.125 
Q 56.890625 40.328125 50.609375 34.8125 
Q 44.34375 29.296875 32.078125 29.296875 
L 19.671875 29.296875 
L 19.671875 0 
L 9.8125 0 
z
" id="DejaVuSans-80"/>
       <path d="M 41.109375 46.296875 
Q 39.59375 47.171875 37.8125 47.578125 
Q 36.03125 48 33.890625 48 
Q 26.265625 48 22.1875 43.046875 
Q 18.109375 38.09375 18.109375 28.8125 
L 18.109375 0 
L 9.078125 0 
L 9.078125 54.6875 
L 18.109375 54.6875 
L 18.109375 46.1875 
Q 20.953125 51.171875 25.484375 53.578125 
Q 30.03125 56 36.53125 56 
Q 37.453125 56 38.578125 55.875 
Q 39.703125 55.765625 41.0625 55.515625 
z
" id="DejaVuSans-114"/>
       <path d="M 9.421875 54.6875 
L 18.40625 54.6875 
L 18.40625 0 
L 9.421875 0 
z
M 9.421875 75.984375 
L 18.40625 75.984375 
L 18.40625 64.59375 
L 9.421875 64.59375 
z
" id="DejaVuSans-105"/>
      </defs>
      <use xlink:href="#DejaVuSans-83"/>
      <use x="63.476562" xlink:href="#DejaVuSans-116"/>
      <use x="102.685547" xlink:href="#DejaVuSans-111"/>
      <use x="163.867188" xlink:href="#DejaVuSans-99"/>
      <use x="218.847656" xlink:href="#DejaVuSans-107"/>
      <use x="276.757812" xlink:href="#DejaVuSans-32"/>
      <use x="308.544922" xlink:href="#DejaVuSans-80"/>
      <use x="367.097656" xlink:href="#DejaVuSans-114"/>
      <use x="408.210938" xlink:href="#DejaVuSans-105"/>
      <use x="435.994141" xlink:href="#DejaVuSans-99"/>
      <use x="490.974609" xlink:href="#DejaVuSans-101"/>
     </g>
    </g>
   </g>
   <g id="line2d_25">
    <path clip-path="url(#p6b3063c1db)" d="M 73.832727 211.131241 
L 74.724635 211.911605 
L 77.40036 211.517671 
L 78.292268 211.817811 
L 79.184176 211.270056 
L 80.076084 210.497196 
L 80.967992 210.816094 
L 83.643716 210.035731 
L 84.535624 210.193304 
L 85.427532 209.979454 
L 86.319441 209.030262 
L 87.211349 208.587556 
L 90.778981 208.891447 
L 92.562797 208.715115 
L 93.454705 209.746846 
L 96.13043 211.528926 
L 97.022338 210.403402 
L 97.914246 210.500947 
L 98.806154 210.129524 
L 99.698062 212.121703 
L 102.373786 211.315077 
L 103.265694 209.638045 
L 104.157602 208.362451 
L 105.04951 207.961014 
L 105.941419 208.561294 
L 109.509051 207.503301 
L 110.400959 206.752951 
L 111.292867 206.906773 
L 112.184775 206.674164 
L 115.752408 207.00807 
L 116.644316 206.441556 
L 117.536224 206.880511 
L 121.103856 211.941619 
L 121.995764 215.303185 
L 122.887672 215.712125 
L 123.77958 220.435576 
L 124.671489 221.257209 
L 127.347213 216.575027 
L 128.239121 219.561419 
L 129.131029 215.190632 
L 130.022937 218.826076 
L 130.914845 220.596901 
L 133.590569 228.370523 
L 134.482478 224.15731 
L 135.374386 228.982058 
L 136.266294 237.91497 
L 137.158202 229.976271 
L 139.833926 241.126466 
L 140.725834 236.226684 
L 141.617742 240.721278 
L 142.50965 240.331096 
L 143.401558 243.906512 
L 146.077283 246.225092 
L 146.969191 239.002977 
L 147.861099 238.031274 
L 148.753007 232.722551 
L 149.644915 235.765219 
L 152.320639 232.823848 
L 153.212547 234.260768 
L 154.104456 238.181344 
L 154.996364 236.226684 
L 155.888272 237.52854 
L 158.563996 231.514488 
L 159.455904 231.660806 
L 160.347812 228.524345 
L 161.23972 227.13995 
L 164.807353 228.107901 
L 165.699261 225.192793 
L 166.591169 227.342544 
L 167.483077 226.787286 
L 168.374985 224.202331 
L 171.050709 225.969404 
L 171.942617 228.944541 
L 172.834525 226.783534 
L 173.726434 226.828555 
L 174.618342 225.485429 
L 177.294066 224.048509 
L 178.185974 224.566251 
L 179.077882 221.943779 
L 179.96979 222.874212 
L 180.861698 225.673016 
L 183.537423 225.260324 
L 184.429331 224.374912 
L 185.321239 225.05773 
L 186.213147 223.894688 
L 187.105055 222.202649 
L 189.780779 222.183891 
L 190.672687 224.2436 
L 191.564595 225.958149 
L 192.456503 224.817618 
L 193.348412 224.423684 
L 196.024136 221.30223 
L 196.916044 222.360223 
L 197.807952 220.664433 
L 198.69986 221.456052 
L 199.591768 221.197181 
L 203.159401 219.944097 
L 204.051309 218.413384 
L 204.943217 218.615978 
L 205.835125 218.098237 
L 208.510849 217.700552 
L 209.402757 216.833898 
L 210.294665 215.370716 
L 211.186573 215.712125 
L 212.078482 212.894563 
L 214.754206 211.566444 
L 215.646114 212.429346 
L 216.538022 213.014619 
L 217.42993 219.490136 
L 218.321838 218.109492 
L 220.997562 217.227832 
L 221.889471 215.220646 
L 222.781379 215.607076 
L 223.673287 215.543297 
L 224.565195 216.132321 
L 227.240919 215.434496 
L 228.132827 214.973031 
L 229.024735 217.764332 
L 229.916643 216.605041 
L 230.808551 219.182492 
L 233.484276 218.188279 
L 234.376184 216.563772 
L 236.16 215.517034 
L 239.727632 213.809989 
L 240.61954 214.99179 
L 241.511449 214.143895 
L 242.403357 214.729167 
L 243.295265 213.592388 
L 245.970989 214.616615 
L 246.862897 213.149681 
L 247.754805 212.147965 
L 248.646713 212.52314 
L 252.214346 211.270056 
L 253.106254 211.082468 
L 253.998162 210.437168 
L 254.89007 211.814059 
L 255.781978 212.500629 
L 258.457702 211.682748 
L 259.34961 212.403084 
L 260.241518 211.026192 
L 261.133427 211.423877 
L 262.025335 210.560975 
L 264.701059 209.746846 
L 265.592967 209.337906 
L 267.376783 207.859717 
L 270.944416 207.447025 
L 271.836324 208.366203 
L 272.728232 206.745448 
L 273.62014 206.951794 
L 274.512048 206.966801 
L 277.187772 206.647902 
L 278.07968 206.359018 
L 278.971588 206.854248 
L 280.755405 206.077636 
L 284.323037 204.460633 
L 285.214945 203.25257 
L 286.106853 203.042472 
L 286.998761 202.224591 
L 289.674486 202.475958 
L 290.566394 201.564284 
L 291.458302 199.684658 
L 292.35021 203.995416 
L 293.242118 204.967119 
L 296.80975 208.238643 
L 297.701658 205.920063 
L 298.593566 207.972269 
L 299.485475 207.90849 
L 303.053107 205.792504 
L 303.945015 206.329004 
L 304.836923 207.311962 
L 305.728831 208.602563 
L 308.404555 209.923178 
L 309.296464 208.733874 
L 310.188372 211.435133 
L 311.08028 211.097475 
L 311.972188 209.30414 
L 314.647912 207.473287 
L 315.53982 208.501266 
L 316.431728 207.552073 
L 317.323636 206.929283 
L 318.215544 208.039801 
L 320.891269 205.961332 
L 321.783177 207.593343 
L 322.675085 205.582406 
L 324.458901 203.560214 
L 327.134625 201.598049 
L 328.918442 203.155025 
L 329.81035 203.335109 
L 330.702258 203.31635 
L 333.377982 205.271011 
L 334.26989 204.712 
L 335.161798 204.970871 
L 336.053706 204.344329 
L 336.945614 203.931637 
L 339.621339 206.145168 
L 340.513247 206.497832 
L 341.405155 210.6135 
L 342.297063 209.259119 
L 343.188971 210.628507 
L 345.864695 209.24036 
L 346.756603 207.214416 
L 348.54042 202.333392 
L 349.432328 202.382165 
L 352.108052 200.930238 
L 352.99996 201.080308 
L 353.891868 200.146123 
L 354.783776 201.346682 
L 355.675684 199.680906 
L 358.351409 198.240235 
L 359.243317 198.821756 
L 360.135225 200.236165 
L 361.027133 199.740934 
L 361.919041 200.577574 
L 364.594765 199.875997 
L 365.486673 197.883819 
L 366.378581 198.075158 
L 368.162398 197.763763 
L 370.838122 198.319022 
L 371.73003 196.912116 
L 372.621938 196.672004 
L 373.513846 196.72828 
L 374.405754 195.602756 
L 377.081479 195.850371 
L 377.973387 195.493955 
L 378.865295 196.503176 
L 383.324835 197.339815 
L 384.216743 195.715308 
L 385.108651 195.486452 
L 386.000559 194.747357 
L 386.892468 195.186312 
L 389.568192 195.677791 
L 390.4601 196.446899 
L 391.352008 196.353106 
L 392.243916 195.891641 
L 395.811548 194.781123 
L 396.703457 195.066256 
L 397.595365 194.88242 
L 398.487273 194.045781 
L 398.487273 194.045781 
" style="fill:none;stroke:#d9d9d9;stroke-linecap:square;stroke-width:1.5;"/>
   </g>
   <g id="line2d_26">
    <path clip-path="url(#p6b3063c1db)" d="M 73.832727 201.02829 
L 74.724635 202.745741 
L 77.40036 201.905697 
L 78.292268 202.572756 
L 79.184176 201.387537 
L 80.076084 199.729867 
L 80.967992 200.444703 
L 83.643716 198.749829 
L 84.535624 199.115197 
L 85.427532 198.649584 
L 86.319441 196.593476 
L 87.211349 195.63681 
L 90.778981 196.313806 
L 91.670889 196.246154 
L 92.562797 195.964019 
L 93.454705 198.265932 
L 96.13043 202.21661 
L 97.022338 199.782097 
L 97.914246 200.001667 
L 98.806154 199.218305 
L 99.698062 203.605659 
L 102.373786 201.880258 
L 103.265694 198.253133 
L 104.157602 195.444984 
L 105.04951 194.581489 
L 105.941419 195.931982 
L 108.617143 194.047031 
L 109.509051 193.613057 
L 110.400959 191.943463 
L 111.292867 192.311931 
L 112.184775 191.810544 
L 115.752408 192.575066 
L 116.644316 191.315358 
L 117.536224 192.343969 
L 121.103856 203.648747 
L 121.995764 210.886622 
L 122.887672 211.741611 
L 123.77958 221.574742 
L 124.671489 223.159752 
L 127.347213 214.012838 
L 128.239121 220.155404 
L 129.131029 211.474342 
L 130.022937 219.010411 
L 130.914845 222.554224 
L 133.590569 237.86811 
L 134.482478 229.42371 
L 135.374386 238.567047 
L 136.266294 254.630112 
L 137.158202 241.942883 
L 139.833926 261.23861 
L 140.725834 253.86869 
L 141.617742 261.031282 
L 142.50965 260.48331 
L 143.401558 265.935526 
L 146.077283 269.271931 
L 146.969191 259.19713 
L 147.861099 257.817858 
L 148.753007 249.772374 
L 149.644915 254.602685 
L 152.320639 250.035191 
L 153.212547 252.344576 
L 154.104456 258.616325 
L 154.996364 255.646162 
L 155.888272 257.657195 
L 158.563996 248.559728 
L 159.455904 248.720391 
L 160.347812 243.657234 
L 161.23972 241.322409 
L 164.807353 242.954242 
L 165.699261 238.068999 
L 166.591169 241.787625 
L 167.483077 240.881043 
L 168.374985 236.466023 
L 171.050709 239.564812 
L 171.942617 244.679961 
L 172.834525 241.102759 
L 173.726434 241.175738 
L 174.618342 238.894892 
L 177.294066 236.431998 
L 178.185974 237.324033 
L 179.077882 232.779354 
L 179.96979 234.453002 
L 180.861698 239.363129 
L 183.537423 238.70879 
L 184.429331 237.181575 
L 185.321239 238.365681 
L 186.213147 236.357589 
L 187.105055 233.421212 
L 189.780779 233.395376 
L 190.672687 237.043727 
L 191.564595 240.049982 
L 192.456503 238.101115 
L 193.348412 237.401702 
L 196.024136 232.031686 
L 196.916044 233.923314 
L 197.807952 230.918649 
L 198.69986 232.320657 
L 199.591768 231.887637 
L 203.159401 229.652661 
L 204.051309 226.884261 
L 204.943217 227.266403 
L 205.835125 226.344954 
L 208.510849 225.605076 
L 209.402757 224.00067 
L 210.294665 221.297775 
L 211.186573 221.92898 
L 212.078482 216.651181 
L 214.754206 214.089791 
L 215.646114 215.767652 
L 216.538022 216.917019 
L 217.42993 229.376092 
L 218.321838 226.917173 
L 220.997562 225.290428 
L 221.889471 221.572119 
L 222.781379 222.325829 
L 223.673287 222.2135 
L 224.565195 223.329159 
L 227.240919 222.042025 
L 228.132827 221.165174 
L 229.024735 226.423576 
L 229.916643 224.313331 
L 230.808551 229.078932 
L 233.484276 226.308067 
L 234.376184 223.419865 
L 236.16 221.362883 
L 239.727632 218.161543 
L 240.61954 220.414087 
L 241.511449 218.815723 
L 242.403357 219.948554 
L 243.295265 217.804602 
L 245.970989 219.757125 
L 246.862897 216.989758 
L 247.754805 215.056235 
L 248.646713 215.788798 
L 252.214346 213.376465 
L 253.106254 212.9917 
L 253.998162 211.726666 
L 254.89007 214.446732 
L 255.781978 215.801597 
L 258.457702 214.227956 
L 259.34961 215.63052 
L 260.241518 212.969918 
L 261.133427 213.762502 
L 262.025335 212.058883 
L 264.701059 210.479677 
L 265.592967 209.659349 
L 267.376783 206.712398 
L 270.944416 205.8842 
L 271.836324 207.766289 
L 272.728232 204.519397 
L 273.62014 204.952496 
L 274.512048 204.974834 
L 277.187772 204.319224 
L 278.07968 203.750026 
L 278.971588 204.763293 
L 280.755405 203.186393 
L 284.323037 199.88743 
L 285.214945 197.385185 
L 286.106853 196.938413 
L 286.998761 195.23225 
L 289.674486 195.839448 
L 290.566394 193.848686 
L 291.458302 189.895941 
L 292.35021 199.193422 
L 293.242118 201.217095 
L 296.80975 207.968449 
L 297.701658 203.334893 
L 298.593566 207.538053 
L 299.485475 207.410699 
L 302.161199 204.396018 
L 303.053107 203.161749 
L 303.945015 204.248153 
L 304.836923 206.262446 
L 305.728831 208.890455 
L 308.404555 211.519576 
L 309.296464 209.187773 
L 310.188372 214.562559 
L 311.08028 213.929445 
L 311.972188 210.4319 
L 314.647912 206.793008 
L 315.53982 207.91614 
L 316.431728 206.041285 
L 317.323636 204.748984 
L 318.215544 207.016077 
L 320.891269 202.841217 
L 321.783177 206.211727 
L 322.675085 202.146255 
L 324.458901 197.956291 
L 327.134625 193.872376 
L 328.918442 197.175155 
L 329.81035 197.550062 
L 330.702258 197.542748 
L 333.377982 201.613149 
L 334.26989 200.494468 
L 335.161798 201.01883 
L 336.053706 199.723189 
L 336.945614 198.876547 
L 339.621339 203.49659 
L 340.513247 204.233208 
L 341.405155 212.585153 
L 342.297063 209.993236 
L 343.188971 212.666717 
L 345.864695 210.001821 
L 346.756603 205.980391 
L 348.54042 196.018793 
L 349.432328 196.100992 
L 352.108052 193.073432 
L 352.99996 193.405252 
L 353.891868 191.431344 
L 354.783776 194.012291 
L 355.675684 190.473566 
L 358.351409 187.369847 
L 359.243317 188.662149 
L 360.135225 191.750763 
L 361.027133 190.697906 
L 361.919041 192.504393 
L 364.594765 191.009534 
L 365.486673 186.753269 
L 366.378581 187.184779 
L 368.162398 186.503649 
L 370.838122 187.719316 
L 371.73003 184.685237 
L 372.621938 184.167235 
L 373.513846 184.294907 
L 374.405754 181.840202 
L 377.081479 182.402086 
L 377.973387 181.611569 
L 378.865295 183.892494 
L 380.649111 184.565197 
L 383.324835 185.743659 
L 384.216743 182.178699 
L 385.108651 181.689158 
L 386.000559 180.067103 
L 386.892468 181.06622 
L 389.568192 182.182833 
L 390.4601 182.745194 
L 391.352008 182.673329 
L 392.243916 181.64925 
L 395.811548 179.202653 
L 396.703457 179.838152 
L 397.595365 179.441462 
L 398.487273 177.620347 
L 398.487273 177.620347 
" style="fill:none;stroke:#a6a6a6;stroke-linecap:square;stroke-width:1.5;"/>
   </g>
   <g id="line2d_27">
    <path clip-path="url(#p6b3063c1db)" d="M 73.832727 235.856613 
L 74.724635 236.704595 
L 77.40036 236.016336 
L 78.292268 236.425806 
L 79.184176 235.031864 
L 80.076084 233.161658 
L 80.967992 232.958375 
L 83.643716 231.032992 
L 84.535624 232.275924 
L 85.427532 232.665066 
L 87.211349 230.518976 
L 90.778981 231.14625 
L 92.562797 230.373773 
L 93.454705 230.640945 
L 96.13043 233.359133 
L 97.022338 230.820996 
L 97.914246 228.889805 
L 98.806154 229.026296 
L 99.698062 233.196506 
L 102.373786 233.44335 
L 103.265694 230.484127 
L 104.157602 229.729075 
L 105.04951 228.637153 
L 105.941419 230.141449 
L 108.617143 229.700034 
L 109.509051 230.263419 
L 110.400959 228.059248 
L 111.292867 228.735891 
L 112.184775 228.712659 
L 115.752408 230.440566 
L 116.644316 229.098897 
L 117.536224 230.06304 
L 118.428132 232.168474 
L 121.103856 236.486791 
L 121.995764 239.419878 
L 122.887672 238.092729 
L 123.77958 243.64817 
L 124.671489 243.694635 
L 127.347213 236.303836 
L 128.239121 239.059776 
L 129.131029 235.162546 
L 130.022937 238.01432 
L 130.914845 239.143994 
L 133.590569 245.782644 
L 134.482478 240.215587 
L 135.374386 243.093497 
L 136.266294 250.992503 
L 137.158202 242.355869 
L 139.833926 252.740739 
L 140.725834 249.64793 
L 141.617742 251.445535 
L 142.50965 251.994399 
L 143.401558 256.507288 
L 146.077283 257.921558 
L 146.969191 251.38455 
L 147.861099 251.7795 
L 148.753007 248.027472 
L 149.644915 251.134802 
L 152.320639 249.081641 
L 153.212547 249.232651 
L 154.104456 253.118265 
L 154.996364 251.950839 
L 155.888272 252.973063 
L 158.563996 246.857141 
L 159.455904 247.739971 
L 160.347812 245.811684 
L 161.23972 245.254108 
L 164.807353 243.726579 
L 165.699261 239.718995 
L 166.591169 240.479855 
L 167.483077 239.823541 
L 168.374985 240.953215 
L 171.050709 242.65789 
L 171.942617 245.143754 
L 172.834525 242.898926 
L 173.726434 243.209659 
L 174.618342 240.903846 
L 177.294066 240.845765 
L 178.185974 242.178722 
L 179.077882 239.52152 
L 179.96979 237.758763 
L 180.861698 239.132377 
L 183.537423 237.944622 
L 184.429331 236.666842 
L 186.213147 234.872141 
L 187.105055 233.016456 
L 189.780779 231.599281 
L 191.564595 233.736659 
L 192.456503 233.187794 
L 193.348412 233.719235 
L 196.024136 231.613801 
L 196.916044 232.142338 
L 197.807952 230.373773 
L 198.69986 231.064936 
L 199.591768 230.472511 
L 203.159401 231.099785 
L 204.051309 230.699026 
L 204.943217 230.65837 
L 205.835125 230.748395 
L 209.402757 229.18021 
L 210.294665 228.66329 
L 211.186573 229.476423 
L 212.078482 226.810508 
L 214.754206 226.241315 
L 215.646114 223.183354 
L 216.538022 220.613273 
L 217.42993 225.532728 
L 218.321838 224.690554 
L 220.997562 223.473759 
L 221.889471 220.83398 
L 222.781379 220.976279 
L 223.673287 220.935622 
L 224.565195 221.519335 
L 227.240919 218.862133 
L 228.132827 216.637633 
L 229.024735 218.516551 
L 229.916643 217.128417 
L 230.808551 220.383853 
L 234.376184 217.140033 
L 235.268092 217.340412 
L 236.16 217.340412 
L 239.727632 214.511871 
L 240.61954 214.848741 
L 241.511449 212.328028 
L 243.295265 211.657193 
L 245.970989 212.17121 
L 246.862897 210.335852 
L 247.754805 209.560472 
L 248.646713 210.957318 
L 249.538621 211.183834 
L 252.214346 208.825748 
L 253.106254 210.402645 
L 253.998162 210.086104 
L 254.89007 215.229171 
L 255.781978 215.496343 
L 258.457702 212.94659 
L 259.34961 214.755811 
L 260.241518 212.679418 
L 261.133427 211.343556 
L 262.025335 199.646057 
L 264.701059 196.535823 
L 265.592967 195.690746 
L 266.484875 195.229002 
L 267.376783 190.768387 
L 268.268691 194.009303 
L 270.944416 192.133289 
L 271.836324 196.027615 
L 272.728232 191.805131 
L 273.62014 189.481894 
L 277.187772 189.949446 
L 278.07968 188.8401 
L 278.971588 188.671665 
L 279.863497 185.68921 
L 280.755405 178.609144 
L 283.431129 176.881236 
L 284.323037 178.080608 
L 285.214945 176.10876 
L 286.106853 177.865708 
L 286.998761 178.100936 
L 289.674486 173.184385 
L 290.566394 167.213666 
L 291.458302 170.442965 
L 292.35021 182.663193 
L 293.242118 182.570264 
L 296.80975 192.025839 
L 297.701658 186.798555 
L 298.593566 191.247555 
L 299.485475 192.978366 
L 302.161199 189.081136 
L 303.053107 188.866236 
L 303.945015 192.827356 
L 304.836923 194.906653 
L 305.728831 198.972318 
L 308.404555 195.208674 
L 309.296464 193.199074 
L 310.188372 198.647065 
L 311.08028 197.369285 
L 311.972188 192.653113 
L 314.647912 189.539975 
L 315.53982 190.550583 
L 316.431728 188.552599 
L 317.323636 187.414213 
L 318.215544 191.793515 
L 320.891269 187.751083 
L 321.783177 191.630889 
L 322.675085 189.400581 
L 323.566993 189.528359 
L 324.458901 187.205122 
L 327.134625 178.574296 
L 328.026533 182.407637 
L 328.918442 182.303091 
L 329.81035 182.860668 
L 330.702258 184.823804 
L 333.377982 188.355124 
L 334.26989 186.577848 
L 335.161798 187.321284 
L 336.053706 188.622296 
L 336.945614 189.447046 
L 339.621339 189.43543 
L 340.513247 187.634921 
L 341.405155 193.907661 
L 342.297063 189.121792 
L 343.188971 196.625849 
L 345.864695 196.730394 
L 346.756603 194.790491 
L 348.54042 184.812187 
L 349.432328 185.207138 
L 352.108052 187.960174 
L 352.99996 188.36674 
L 353.891868 184.277843 
L 354.783776 184.603096 
L 355.675684 184.545015 
L 358.351409 183.336932 
L 359.243317 184.394005 
L 360.135225 185.973806 
L 361.027133 185.265219 
L 361.919041 186.775323 
L 364.594765 190.829372 
L 365.486673 189.296035 
L 366.378581 188.297043 
L 368.162398 187.646537 
L 370.838122 184.788955 
L 371.73003 180.525815 
L 372.621938 180.107632 
L 373.513846 180.270259 
L 374.405754 181.071776 
L 377.081479 179.329348 
L 377.973387 178.597528 
L 378.865295 181.617736 
L 379.757203 179.921773 
L 380.649111 180.885917 
L 383.324835 181.617736 
L 384.216743 174.531863 
L 385.108651 174.613176 
L 386.000559 173.579336 
L 386.892468 175.954846 
L 389.568192 174.125296 
L 390.4601 169.885388 
L 391.352008 170.954078 
L 392.243916 169.780843 
L 395.811548 164.298003 
L 396.703457 166.412149 
L 398.487273 168.944477 
L 398.487273 168.944477 
" style="fill:none;stroke:#40ff00;stroke-linecap:square;stroke-width:1.5;"/>
   </g>
   <g id="line2d_28">
    <path clip-path="url(#p6b3063c1db)" d="M 73.832727 290.214406 
L 74.724635 289.240502 
L 77.40036 288.588942 
L 78.292268 287.250683 
L 79.184176 285.487726 
L 80.076084 286.31268 
L 80.967992 286.556347 
L 83.643716 282.988422 
L 84.535624 281.990839 
L 85.427532 283.474228 
L 86.319441 283.856915 
L 87.211349 284.085305 
L 90.778981 281.28199 
L 91.670889 279.57403 
L 92.562797 279.372374 
L 93.454705 279.936093 
L 96.13043 280.455508 
L 97.022338 279.777213 
L 97.914246 278.700954 
L 98.806154 274.131626 
L 99.698062 273.386112 
L 102.373786 263.499652 
L 103.265694 255.321915 
L 104.157602 266.959875 
L 105.04951 265.87063 
L 105.941419 265.938612 
L 108.617143 264.165726 
L 109.509051 263.928933 
L 110.400959 264.4705 
L 111.292867 261.666421 
L 112.184775 261.969668 
L 115.752408 257.511098 
L 116.644316 253.002878 
L 117.536224 254.378565 
L 118.428132 254.257113 
L 121.103856 259.390923 
L 121.995764 261.978834 
L 122.887672 263.591313 
L 123.77958 271.214498 
L 124.671489 272.055492 
L 127.347213 266.278524 
L 128.239121 266.134157 
L 129.131029 265.829382 
L 130.022937 267.735942 
L 130.914845 269.344602 
L 133.590569 276.637805 
L 134.482478 273.786368 
L 135.374386 274.634237 
L 136.266294 280.262255 
L 137.158202 281.326293 
L 139.833926 289.08315 
L 140.725834 290.218989 
L 141.617742 295.488 
L 142.50965 290.414534 
L 143.401558 290.422936 
L 146.077283 289.906576 
L 146.969191 284.50542 
L 147.861099 281.889247 
L 148.753007 282.736353 
L 149.644915 283.79046 
L 152.320639 284.724644 
L 153.212547 283.054113 
L 154.104456 286.295876 
L 154.996364 288.365135 
L 155.888272 286.414272 
L 158.563996 283.646857 
L 159.455904 281.415663 
L 160.347812 281.156719 
L 161.23972 279.311267 
L 164.807353 273.357086 
L 165.699261 268.854977 
L 166.591169 267.331868 
L 167.483077 266.157072 
L 168.374985 265.494054 
L 171.050709 266.06923 
L 171.942617 270.624808 
L 172.834525 267.157711 
L 173.726434 269.180375 
L 174.618342 267.689348 
L 177.294066 262.06744 
L 178.185974 264.330716 
L 179.077882 261.933003 
L 179.96979 263.356049 
L 180.861698 269.509593 
L 183.537423 264.936446 
L 184.429331 264.400226 
L 185.321239 263.302579 
L 186.213147 263.496596 
L 187.105055 260.48857 
L 190.672687 261.25318 
L 191.564595 262.662476 
L 192.456503 261.717599 
L 193.348412 262.035359 
L 196.024136 260.930837 
L 196.916044 261.360119 
L 197.807952 260.783415 
L 198.69986 259.863744 
L 199.591768 260.682587 
L 204.051309 260.426699 
L 204.943217 261.528165 
L 205.835125 259.298498 
L 208.510849 254.478629 
L 209.402757 255.74203 
L 210.294665 255.635092 
L 211.186573 257.054318 
L 214.754206 250.520378 
L 215.646114 251.226936 
L 216.538022 244.781602 
L 217.42993 248.769643 
L 218.321838 251.638649 
L 220.997562 247.390137 
L 221.889471 248.06003 
L 222.781379 247.322154 
L 223.673287 246.392554 
L 224.565195 246.626291 
L 227.240919 247.128901 
L 228.132827 246.559072 
L 229.024735 249.685494 
L 229.916643 247.765949 
L 230.808551 249.770281 
L 233.484276 245.980841 
L 234.376184 240.598781 
L 235.268092 237.557146 
L 236.16 230.756623 
L 239.727632 218.312042 
L 240.61954 216.915731 
L 241.511449 218.747435 
L 242.403357 216.578111 
L 243.295265 205.092157 
L 245.970989 208.727301 
L 246.862897 207.219469 
L 247.754805 204.988274 
L 248.646713 208.453844 
L 249.538621 208.438567 
L 252.214346 197.57973 
L 253.106254 203.281078 
L 253.998162 201.450139 
L 254.89007 207.504383 
L 255.781978 214.842653 
L 258.457702 205.477899 
L 259.34961 210.298532 
L 260.241518 208.570712 
L 261.133427 209.458302 
L 262.025335 213.791601 
L 264.701059 209.648499 
L 265.592967 209.49573 
L 266.484875 209.646972 
L 267.376783 209.298658 
L 268.268691 212.114959 
L 270.944416 214.722729 
L 271.836324 218.097401 
L 272.728232 204.319909 
L 273.62014 199.260192 
L 274.512048 196.990805 
L 277.187772 182.864999 
L 278.07968 178.93501 
L 278.971588 179.588863 
L 279.863497 170.17064 
L 280.755405 166.492721 
L 283.431129 169.225762 
L 284.323037 168.527607 
L 285.214945 158.610592 
L 286.106853 152.073597 
L 286.998761 154.009947 
L 289.674486 132.759748 
L 290.566394 141.647097 
L 291.458302 152.218728 
L 292.35021 167.636962 
L 293.242118 163.313593 
L 296.80975 196.964834 
L 297.701658 183.188869 
L 298.593566 181.256339 
L 299.485475 180.729285 
L 302.161199 162.817093 
L 303.053107 151.305932 
L 303.945015 154.361316 
L 304.836923 161.361966 
L 305.728831 154.212366 
L 308.404555 151.447243 
L 309.296464 161.056428 
L 310.188372 177.811393 
L 311.08028 174.973704 
L 311.972188 167.507108 
L 314.647912 162.213655 
L 315.53982 163.027151 
L 316.431728 159.230835 
L 317.323636 151.917009 
L 318.215544 164.547205 
L 320.891269 160.502639 
L 321.783177 164.971139 
L 322.675085 160.64777 
L 323.566993 160.410978 
L 324.458901 157.325039 
L 327.134625 154.155078 
L 328.026533 152.493713 
L 328.918442 146.89854 
L 329.81035 151.642024 
L 330.702258 155.159536 
L 333.377982 158.535735 
L 334.26989 161.931032 
L 335.161798 161.663685 
L 336.053706 160.460628 
L 336.945614 162.431351 
L 339.621339 162.565024 
L 340.513247 160.884562 
L 341.405155 168.011247 
L 342.297063 166.174197 
L 343.188971 174.878223 
L 345.864695 170.115643 
L 346.756603 161.182462 
L 347.648511 162.297678 
L 348.54042 155.762974 
L 349.432328 158.871828 
L 352.108052 162.190739 
L 352.99996 166.353701 
L 353.891868 163.768081 
L 354.783776 165.819008 
L 355.675684 167.064078 
L 358.351409 167.220666 
L 359.243317 154.418605 
L 360.135225 137.220609 
L 361.027133 132.396921 
L 361.919041 136.086298 
L 364.594765 123.773098 
L 365.486673 110.967218 
L 366.378581 103.85581 
L 368.162398 99.364395 
L 370.838122 106.300118 
L 371.73003 99.746318 
L 372.621938 105.834172 
L 373.513846 96.454141 
L 374.405754 94.292457 
L 377.081479 77.976703 
L 377.973387 74.875488 
L 378.865295 92.214795 
L 379.757203 83.587153 
L 380.649111 90.110399 
L 383.324835 78.713815 
L 384.216743 81.226868 
L 385.108651 85.229422 
L 386.000559 72.576311 
L 386.892468 57.643119 
L 389.568192 74.883126 
L 390.4601 78.519034 
L 391.352008 76.364988 
L 392.243916 70.334423 
L 395.811548 69.60113 
L 396.703457 68.722707 
L 397.595365 57.727142 
L 398.487273 53.568 
L 398.487273 53.568 
" style="fill:none;stroke:#737373;stroke-linecap:square;stroke-width:1.5;"/>
   </g>
   <g id="line2d_29">
    <path clip-path="url(#p6b3063c1db)" d="M 73.832727 201.148898 
L 74.724635 201.814095 
L 77.40036 201.858442 
L 78.292268 202.789719 
L 79.184176 202.567986 
L 80.076084 200.372834 
L 83.643716 198.621146 
L 84.535624 198.909398 
L 85.427532 197.35727 
L 87.211349 196.825112 
L 90.778981 196.315127 
L 91.670889 195.339504 
L 92.562797 194.851692 
L 93.454705 195.184291 
L 96.13043 195.627756 
L 97.022338 196.669899 
L 97.914246 196.669899 
L 98.806154 192.567846 
L 99.698062 193.587816 
L 102.373786 193.188698 
L 103.265694 192.612193 
L 104.157602 192.59002 
L 105.04951 192.279594 
L 108.617143 190.594426 
L 110.400959 191.348317 
L 111.292867 190.904852 
L 112.184775 190.150961 
L 115.752408 191.082238 
L 116.644316 190.55008 
L 117.536224 190.660946 
L 118.428132 189.751842 
L 121.103856 193.033485 
L 121.995764 194.873865 
L 122.887672 195.361677 
L 123.77958 201.281937 
L 124.671489 204.474887 
L 127.347213 199.086785 
L 128.239121 198.776359 
L 129.131029 192.434807 
L 130.022937 197.268577 
L 130.914845 200.55022 
L 133.590569 208.089128 
L 134.482478 204.097941 
L 135.374386 207.313064 
L 136.266294 218.51056 
L 137.158202 215.605863 
L 139.833926 222.723479 
L 140.725834 218.466213 
L 141.617742 223.632582 
L 142.50965 230.328907 
L 143.401558 238.156067 
L 146.077283 239.796888 
L 146.969191 235.606142 
L 147.861099 230.816718 
L 148.753007 224.874285 
L 149.644915 228.155927 
L 152.320639 223.299984 
L 153.212547 224.962978 
L 154.104456 229.685882 
L 154.996364 225.628176 
L 155.888272 225.894255 
L 158.563996 219.597049 
L 159.455904 219.951821 
L 161.23972 214.43068 
L 164.807353 219.020545 
L 165.699261 214.608066 
L 166.591169 217.512763 
L 167.483077 218.643599 
L 168.374985 216.514966 
L 171.050709 219.907475 
L 171.942617 222.4574 
L 172.834525 221.792202 
L 173.726434 223.144771 
L 174.618342 222.346533 
L 177.294066 219.353143 
L 178.185974 219.441836 
L 179.077882 218.599253 
L 179.96979 221.326564 
L 180.861698 221.969588 
L 183.537423 222.989558 
L 184.429331 222.413053 
L 185.321239 223.854315 
L 186.213147 224.186914 
L 187.105055 220.838752 
L 189.780779 222.102628 
L 190.672687 223.699102 
L 191.564595 225.650349 
L 192.456503 226.182507 
L 193.348412 227.158131 
L 196.024136 223.366503 
L 196.916044 224.319954 
L 197.807952 221.326564 
L 198.69986 222.923038 
L 199.591768 223.233464 
L 203.159401 220.883098 
L 204.051309 219.46401 
L 204.943217 218.665772 
L 205.835125 219.574876 
L 208.510849 218.887505 
L 209.402757 219.087064 
L 210.294665 216.869738 
L 211.186573 216.825392 
L 212.078482 214.231121 
L 214.754206 212.545953 
L 215.646114 214.43068 
L 216.538022 215.273264 
L 217.42993 222.102628 
L 218.321838 221.969588 
L 220.997562 220.41746 
L 221.889471 219.375317 
L 222.781379 219.796609 
L 223.673287 218.887505 
L 224.565195 221.038311 
L 228.132827 221.880895 
L 229.024735 224.076048 
L 229.916643 223.455196 
L 230.808551 226.47076 
L 234.376184 224.009528 
L 235.268092 223.699102 
L 236.16 223.566063 
L 239.727632 222.789999 
L 240.61954 222.834345 
L 241.511449 223.144771 
L 242.403357 225.716869 
L 243.295265 222.967385 
L 245.970989 222.745652 
L 247.754805 220.195727 
L 248.646713 220.750059 
L 249.538621 219.26445 
L 252.214346 220.816579 
L 253.106254 218.421867 
L 253.998162 215.583689 
L 254.89007 216.027155 
L 255.781978 215.561516 
L 258.457702 215.583689 
L 259.34961 216.248887 
L 260.241518 216.603659 
L 261.133427 217.335377 
L 262.025335 218.333174 
L 264.701059 220.41746 
L 265.592967 219.552703 
L 266.484875 218.37752 
L 267.376783 217.801015 
L 268.268691 217.091471 
L 270.944416 217.268857 
L 271.836324 216.803219 
L 272.728232 215.694556 
L 273.62014 215.805422 
L 274.512048 215.650209 
L 277.187772 216.182367 
L 278.07968 215.716729 
L 278.971588 218.044921 
L 280.755405 218.24448 
L 283.431129 216.714526 
L 284.323037 216.847565 
L 285.214945 216.293234 
L 286.106853 216.138021 
L 286.998761 212.590299 
L 289.674486 213.255497 
L 290.566394 214.164601 
L 291.458302 209.574736 
L 292.35021 211.149038 
L 293.242118 209.907335 
L 296.80975 212.634646 
L 297.701658 211.792062 
L 298.593566 212.213354 
L 299.485475 209.862989 
L 302.161199 210.639053 
L 303.053107 209.885162 
L 304.836923 210.993825 
L 305.728831 211.215557 
L 308.404555 214.231121 
L 309.296464 212.967245 
L 310.188372 216.182367 
L 311.08028 215.095878 
L 311.972188 215.051531 
L 314.647912 213.809829 
L 315.53982 214.608066 
L 316.431728 213.610269 
L 317.323636 214.031561 
L 318.215544 213.632443 
L 320.891269 213.588096 
L 321.783177 214.563719 
L 322.675085 213.188977 
L 323.566993 211.193384 
L 324.458901 210.41732 
L 327.134625 209.796469 
L 328.026533 211.725542 
L 329.81035 212.235527 
L 330.702258 212.146834 
L 333.377982 213.055938 
L 334.26989 211.659023 
L 335.161798 212.235527 
L 336.053706 210.705572 
L 336.945614 211.060345 
L 339.621339 212.656819 
L 340.513247 212.435087 
L 341.405155 216.736699 
L 343.188971 216.514966 
L 345.864695 215.273264 
L 346.756603 213.654616 
L 347.648511 214.053735 
L 348.54042 213.455057 
L 349.432328 213.432883 
L 352.108052 206.514826 
L 352.99996 203.388397 
L 353.891868 204.275327 
L 354.783776 205.539203 
L 355.675684 204.56358 
L 358.351409 203.676649 
L 359.243317 204.053595 
L 360.135225 206.426133 
L 361.027133 205.273124 
L 361.919041 206.293094 
L 364.594765 206.270921 
L 365.486673 205.073565 
L 366.378581 205.716589 
L 368.162398 206.226574 
L 370.838122 208.665633 
L 371.73003 207.690009 
L 372.621938 207.534796 
L 373.513846 206.049188 
L 374.405754 203.676649 
L 377.081479 205.583549 
L 378.865295 204.829659 
L 379.757203 205.45051 
L 380.649111 204.785312 
L 383.324835 204.962698 
L 384.216743 203.698822 
L 385.108651 205.428337 
L 386.000559 204.962698 
L 386.892468 203.920555 
L 389.568192 205.982668 
L 390.4601 206.093534 
L 392.243916 204.585753 
L 395.811548 202.989278 
L 396.703457 203.055798 
L 397.595365 202.368427 
L 398.487273 201.481497 
L 398.487273 201.481497 
" style="fill:none;stroke:#404040;stroke-linecap:square;stroke-width:1.5;"/>
   </g>
   <g id="patch_3">
    <path d="M 57.6 307.584 
L 57.6 41.472 
" style="fill:none;stroke:#000000;stroke-linecap:square;stroke-linejoin:miter;stroke-width:0.8;"/>
   </g>
   <g id="patch_4">
    <path d="M 414.72 307.584 
L 414.72 41.472 
" style="fill:none;stroke:#000000;stroke-linecap:square;stroke-linejoin:miter;stroke-width:0.8;"/>
   </g>
   <g id="patch_5">
    <path d="M 57.6 307.584 
L 414.72 307.584 
" style="fill:none;stroke:#000000;stroke-linecap:square;stroke-linejoin:miter;stroke-width:0.8;"/>
   </g>
   <g id="patch_6">
    <path d="M 57.6 41.472 
L 414.72 41.472 
" style="fill:none;stroke:#000000;stroke-linecap:square;stroke-linejoin:miter;stroke-width:0.8;"/>
   </g>
   <g id="text_15">
    <!-- Normalized Returns -->
    <g transform="translate(169.067813 35.472)scale(0.12 -0.12)">
     <defs>
      <path d="M 9.1875 72.90625 
L 30.171875 72.90625 
L 56.6875 22.90625 
L 56.6875 72.90625 
L 74.515625 72.90625 
L 74.515625 0 
L 53.515625 0 
L 27 50 
L 27 0 
L 9.1875 0 
z
" id="DejaVuSans-Bold-78"/>
      <path d="M 34.421875 43.5 
Q 28.609375 43.5 25.5625 39.328125 
Q 22.515625 35.15625 22.515625 27.296875 
Q 22.515625 19.4375 25.5625 15.25 
Q 28.609375 11.078125 34.421875 11.078125 
Q 40.140625 11.078125 43.15625 15.25 
Q 46.1875 19.4375 46.1875 27.296875 
Q 46.1875 35.15625 43.15625 39.328125 
Q 40.140625 43.5 34.421875 43.5 
z
M 34.421875 56 
Q 48.53125 56 56.46875 48.375 
Q 64.40625 40.765625 64.40625 27.296875 
Q 64.40625 13.8125 56.46875 6.1875 
Q 48.53125 -1.421875 34.421875 -1.421875 
Q 20.265625 -1.421875 12.28125 6.1875 
Q 4.296875 13.8125 4.296875 27.296875 
Q 4.296875 40.765625 12.28125 48.375 
Q 20.265625 56 34.421875 56 
z
" id="DejaVuSans-Bold-111"/>
      <path d="M 49.03125 39.796875 
Q 46.734375 40.875 44.453125 41.375 
Q 42.1875 41.890625 39.890625 41.890625 
Q 33.15625 41.890625 29.515625 37.5625 
Q 25.875 33.25 25.875 25.203125 
L 25.875 0 
L 8.40625 0 
L 8.40625 54.6875 
L 25.875 54.6875 
L 25.875 45.703125 
Q 29.25 51.078125 33.609375 53.53125 
Q 37.984375 56 44.09375 56 
Q 44.96875 56 45.984375 55.921875 
Q 47.015625 55.859375 48.96875 55.609375 
z
" id="DejaVuSans-Bold-114"/>
      <path d="M 59.078125 45.609375 
Q 62.40625 50.6875 66.96875 53.34375 
Q 71.53125 56 77 56 
Q 86.421875 56 91.359375 50.1875 
Q 96.296875 44.390625 96.296875 33.296875 
L 96.296875 0 
L 78.71875 0 
L 78.71875 28.515625 
Q 78.765625 29.15625 78.78125 29.828125 
Q 78.8125 30.515625 78.8125 31.78125 
Q 78.8125 37.59375 77.09375 40.203125 
Q 75.390625 42.828125 71.578125 42.828125 
Q 66.609375 42.828125 63.890625 38.71875 
Q 61.1875 34.625 61.078125 26.859375 
L 61.078125 0 
L 43.5 0 
L 43.5 28.515625 
Q 43.5 37.59375 41.9375 40.203125 
Q 40.375 42.828125 36.375 42.828125 
Q 31.34375 42.828125 28.609375 38.703125 
Q 25.875 34.578125 25.875 26.90625 
L 25.875 0 
L 8.296875 0 
L 8.296875 54.6875 
L 25.875 54.6875 
L 25.875 46.6875 
Q 29.109375 51.3125 33.28125 53.65625 
Q 37.453125 56 42.484375 56 
Q 48.140625 56 52.484375 53.265625 
Q 56.84375 50.53125 59.078125 45.609375 
z
" id="DejaVuSans-Bold-109"/>
      <path d="M 32.90625 24.609375 
Q 27.4375 24.609375 24.671875 22.75 
Q 21.921875 20.90625 21.921875 17.28125 
Q 21.921875 13.96875 24.140625 12.078125 
Q 26.375 10.203125 30.328125 10.203125 
Q 35.25 10.203125 38.625 13.734375 
Q 42 17.28125 42 22.609375 
L 42 24.609375 
z
M 59.625 31.203125 
L 59.625 0 
L 42 0 
L 42 8.109375 
Q 38.484375 3.125 34.078125 0.84375 
Q 29.6875 -1.421875 23.390625 -1.421875 
Q 14.890625 -1.421875 9.59375 3.53125 
Q 4.296875 8.5 4.296875 16.40625 
Q 4.296875 26.03125 10.90625 30.515625 
Q 17.53125 35.015625 31.6875 35.015625 
L 42 35.015625 
L 42 36.375 
Q 42 40.53125 38.71875 42.453125 
Q 35.453125 44.390625 28.515625 44.390625 
Q 22.90625 44.390625 18.0625 43.265625 
Q 13.234375 42.140625 9.078125 39.890625 
L 9.078125 53.21875 
Q 14.703125 54.59375 20.359375 55.296875 
Q 26.03125 56 31.6875 56 
Q 46.484375 56 53.046875 50.171875 
Q 59.625 44.34375 59.625 31.203125 
z
" id="DejaVuSans-Bold-97"/>
      <path d="M 8.40625 75.984375 
L 25.875 75.984375 
L 25.875 0 
L 8.40625 0 
z
" id="DejaVuSans-Bold-108"/>
      <path d="M 8.40625 54.6875 
L 25.875 54.6875 
L 25.875 0 
L 8.40625 0 
z
M 8.40625 75.984375 
L 25.875 75.984375 
L 25.875 61.71875 
L 8.40625 61.71875 
z
" id="DejaVuSans-Bold-105"/>
      <path d="M 5.71875 54.6875 
L 53.421875 54.6875 
L 53.421875 42.484375 
L 24.609375 12.5 
L 53.421875 12.5 
L 53.421875 0 
L 4.5 0 
L 4.5 12.203125 
L 33.296875 42.1875 
L 5.71875 42.1875 
z
" id="DejaVuSans-Bold-122"/>
      <path d="M 62.984375 27.484375 
L 62.984375 22.515625 
L 22.125 22.515625 
Q 22.75 16.359375 26.5625 13.28125 
Q 30.375 10.203125 37.203125 10.203125 
Q 42.71875 10.203125 48.5 11.84375 
Q 54.296875 13.484375 60.40625 16.796875 
L 60.40625 3.328125 
Q 54.203125 0.984375 48 -0.21875 
Q 41.796875 -1.421875 35.59375 -1.421875 
Q 20.75 -1.421875 12.515625 6.125 
Q 4.296875 13.671875 4.296875 27.296875 
Q 4.296875 40.671875 12.375 48.328125 
Q 20.453125 56 34.625 56 
Q 47.515625 56 55.25 48.234375 
Q 62.984375 40.484375 62.984375 27.484375 
z
M 45.015625 33.296875 
Q 45.015625 38.28125 42.109375 41.328125 
Q 39.203125 44.390625 34.515625 44.390625 
Q 29.4375 44.390625 26.265625 41.53125 
Q 23.09375 38.671875 22.3125 33.296875 
z
" id="DejaVuSans-Bold-101"/>
      <path d="M 45.609375 46.6875 
L 45.609375 75.984375 
L 63.1875 75.984375 
L 63.1875 0 
L 45.609375 0 
L 45.609375 7.90625 
Q 42 3.078125 37.640625 0.828125 
Q 33.296875 -1.421875 27.59375 -1.421875 
Q 17.484375 -1.421875 10.984375 6.609375 
Q 4.5 14.65625 4.5 27.296875 
Q 4.5 39.9375 10.984375 47.96875 
Q 17.484375 56 27.59375 56 
Q 33.25 56 37.625 53.734375 
Q 42 51.46875 45.609375 46.6875 
z
M 34.078125 11.28125 
Q 39.703125 11.28125 42.65625 15.375 
Q 45.609375 19.484375 45.609375 27.296875 
Q 45.609375 35.109375 42.65625 39.203125 
Q 39.703125 43.3125 34.078125 43.3125 
Q 28.515625 43.3125 25.5625 39.203125 
Q 22.609375 35.109375 22.609375 27.296875 
Q 22.609375 19.484375 25.5625 15.375 
Q 28.515625 11.28125 34.078125 11.28125 
z
" id="DejaVuSans-Bold-100"/>
      <path id="DejaVuSans-Bold-32"/>
      <path d="M 35.890625 40.578125 
Q 41.796875 40.578125 44.359375 42.765625 
Q 46.921875 44.96875 46.921875 50 
Q 46.921875 54.984375 44.359375 57.125 
Q 41.796875 59.28125 35.890625 59.28125 
L 27.984375 59.28125 
L 27.984375 40.578125 
z
M 27.984375 27.59375 
L 27.984375 0 
L 9.1875 0 
L 9.1875 72.90625 
L 37.890625 72.90625 
Q 52.296875 72.90625 59 68.0625 
Q 65.71875 63.234375 65.71875 52.78125 
Q 65.71875 45.5625 62.21875 40.921875 
Q 58.734375 36.28125 51.703125 34.078125 
Q 55.5625 33.203125 58.609375 30.09375 
Q 61.671875 27 64.796875 20.703125 
L 75 0 
L 54.984375 0 
L 46.09375 18.109375 
Q 43.40625 23.578125 40.640625 25.578125 
Q 37.890625 27.59375 33.296875 27.59375 
z
" id="DejaVuSans-Bold-82"/>
      <path d="M 27.484375 70.21875 
L 27.484375 54.6875 
L 45.515625 54.6875 
L 45.515625 42.1875 
L 27.484375 42.1875 
L 27.484375 19 
Q 27.484375 15.1875 29 13.84375 
Q 30.515625 12.5 35.015625 12.5 
L 44 12.5 
L 44 0 
L 29 0 
Q 18.65625 0 14.328125 4.3125 
Q 10.015625 8.640625 10.015625 19 
L 10.015625 42.1875 
L 1.3125 42.1875 
L 1.3125 54.6875 
L 10.015625 54.6875 
L 10.015625 70.21875 
z
" id="DejaVuSans-Bold-116"/>
      <path d="M 7.8125 21.296875 
L 7.8125 54.6875 
L 25.390625 54.6875 
L 25.390625 49.21875 
Q 25.390625 44.78125 25.34375 38.0625 
Q 25.296875 31.34375 25.296875 29.109375 
Q 25.296875 22.515625 25.640625 19.609375 
Q 25.984375 16.703125 26.8125 15.375 
Q 27.875 13.671875 29.609375 12.734375 
Q 31.34375 11.8125 33.59375 11.8125 
Q 39.0625 11.8125 42.1875 16.015625 
Q 45.3125 20.21875 45.3125 27.6875 
L 45.3125 54.6875 
L 62.796875 54.6875 
L 62.796875 0 
L 45.3125 0 
L 45.3125 7.90625 
Q 41.359375 3.125 36.9375 0.84375 
Q 32.515625 -1.421875 27.203125 -1.421875 
Q 17.71875 -1.421875 12.765625 4.390625 
Q 7.8125 10.203125 7.8125 21.296875 
z
" id="DejaVuSans-Bold-117"/>
      <path d="M 63.375 33.296875 
L 63.375 0 
L 45.796875 0 
L 45.796875 5.421875 
L 45.796875 25.484375 
Q 45.796875 32.5625 45.484375 35.25 
Q 45.171875 37.9375 44.390625 39.203125 
Q 43.359375 40.921875 41.59375 41.875 
Q 39.84375 42.828125 37.59375 42.828125 
Q 32.125 42.828125 29 38.59375 
Q 25.875 34.375 25.875 26.90625 
L 25.875 0 
L 8.40625 0 
L 8.40625 54.6875 
L 25.875 54.6875 
L 25.875 46.6875 
Q 29.828125 51.46875 34.265625 53.734375 
Q 38.71875 56 44.09375 56 
Q 53.5625 56 58.46875 50.1875 
Q 63.375 44.390625 63.375 33.296875 
z
" id="DejaVuSans-Bold-110"/>
      <path d="M 51.125 52.984375 
L 51.125 39.703125 
Q 45.515625 42.046875 40.28125 43.21875 
Q 35.0625 44.390625 30.421875 44.390625 
Q 25.4375 44.390625 23.015625 43.140625 
Q 20.609375 41.890625 20.609375 39.3125 
Q 20.609375 37.203125 22.4375 36.078125 
Q 24.265625 34.96875 29 34.421875 
L 32.078125 33.984375 
Q 45.515625 32.28125 50.140625 28.375 
Q 54.78125 24.46875 54.78125 16.109375 
Q 54.78125 7.375 48.328125 2.96875 
Q 41.890625 -1.421875 29.109375 -1.421875 
Q 23.6875 -1.421875 17.890625 -0.5625 
Q 12.109375 0.296875 6 2 
L 6 15.28125 
Q 11.234375 12.75 16.71875 11.46875 
Q 22.21875 10.203125 27.875 10.203125 
Q 33.015625 10.203125 35.59375 11.609375 
Q 38.1875 13.03125 38.1875 15.828125 
Q 38.1875 18.171875 36.40625 19.3125 
Q 34.625 20.453125 29.296875 21.09375 
L 26.21875 21.484375 
Q 14.546875 22.953125 9.859375 26.90625 
Q 5.171875 30.859375 5.171875 38.921875 
Q 5.171875 47.609375 11.125 51.796875 
Q 17.09375 56 29.390625 56 
Q 34.234375 56 39.546875 55.265625 
Q 44.875 54.546875 51.125 52.984375 
z
" id="DejaVuSans-Bold-115"/>
     </defs>
     <use xlink:href="#DejaVuSans-Bold-78"/>
     <use x="83.691406" xlink:href="#DejaVuSans-Bold-111"/>
     <use x="152.392578" xlink:href="#DejaVuSans-Bold-114"/>
     <use x="201.708984" xlink:href="#DejaVuSans-Bold-109"/>
     <use x="305.908203" xlink:href="#DejaVuSans-Bold-97"/>
     <use x="373.388672" xlink:href="#DejaVuSans-Bold-108"/>
     <use x="407.666016" xlink:href="#DejaVuSans-Bold-105"/>
     <use x="441.943359" xlink:href="#DejaVuSans-Bold-122"/>
     <use x="500.146484" xlink:href="#DejaVuSans-Bold-101"/>
     <use x="567.96875" xlink:href="#DejaVuSans-Bold-100"/>
     <use x="639.550781" xlink:href="#DejaVuSans-Bold-32"/>
     <use x="674.365234" xlink:href="#DejaVuSans-Bold-82"/>
     <use x="751.367188" xlink:href="#DejaVuSans-Bold-101"/>
     <use x="819.189453" xlink:href="#DejaVuSans-Bold-116"/>
     <use x="866.992188" xlink:href="#DejaVuSans-Bold-117"/>
     <use x="938.183594" xlink:href="#DejaVuSans-Bold-114"/>
     <use x="987.5" xlink:href="#DejaVuSans-Bold-110"/>
     <use x="1058.691406" xlink:href="#DejaVuSans-Bold-115"/>
    </g>
   </g>
   <g id="legend_1">
    <g id="patch_7">
     <path d="M 64.6 122.862625 
L 182.046875 122.862625 
Q 184.046875 122.862625 184.046875 120.862625 
L 184.046875 48.472 
Q 184.046875 46.472 182.046875 46.472 
L 64.6 46.472 
Q 62.6 46.472 62.6 48.472 
L 62.6 120.862625 
Q 62.6 122.862625 64.6 122.862625 
z
" style="opacity:0.8;stroke:#cccccc;stroke-linejoin:miter;"/>
    </g>
    <g id="line2d_30">
     <path d="M 66.6 54.570438 
L 86.6 54.570438 
" style="fill:none;stroke:#d9d9d9;stroke-linecap:square;stroke-width:1.5;"/>
    </g>
    <g id="line2d_31"/>
    <g id="text_16">
     <!-- Normalized VOO -->
     <g style="fill:#ffffff;" transform="translate(94.6 58.070438)scale(0.1 -0.1)">
      <defs>
       <path d="M 9.8125 72.90625 
L 23.09375 72.90625 
L 55.421875 11.921875 
L 55.421875 72.90625 
L 64.984375 72.90625 
L 64.984375 0 
L 51.703125 0 
L 19.390625 60.984375 
L 19.390625 0 
L 9.8125 0 
z
" id="DejaVuSans-78"/>
       <path d="M 52 44.1875 
Q 55.375 50.25 60.0625 53.125 
Q 64.75 56 71.09375 56 
Q 79.640625 56 84.28125 50.015625 
Q 88.921875 44.046875 88.921875 33.015625 
L 88.921875 0 
L 79.890625 0 
L 79.890625 32.71875 
Q 79.890625 40.578125 77.09375 44.375 
Q 74.3125 48.1875 68.609375 48.1875 
Q 61.625 48.1875 57.5625 43.546875 
Q 53.515625 38.921875 53.515625 30.90625 
L 53.515625 0 
L 44.484375 0 
L 44.484375 32.71875 
Q 44.484375 40.625 41.703125 44.40625 
Q 38.921875 48.1875 33.109375 48.1875 
Q 26.21875 48.1875 22.15625 43.53125 
Q 18.109375 38.875 18.109375 30.90625 
L 18.109375 0 
L 9.078125 0 
L 9.078125 54.6875 
L 18.109375 54.6875 
L 18.109375 46.1875 
Q 21.1875 51.21875 25.484375 53.609375 
Q 29.78125 56 35.6875 56 
Q 41.65625 56 45.828125 52.96875 
Q 50 49.953125 52 44.1875 
z
" id="DejaVuSans-109"/>
       <path d="M 9.421875 75.984375 
L 18.40625 75.984375 
L 18.40625 0 
L 9.421875 0 
z
" id="DejaVuSans-108"/>
       <path d="M 5.515625 54.6875 
L 48.1875 54.6875 
L 48.1875 46.484375 
L 14.40625 7.171875 
L 48.1875 7.171875 
L 48.1875 0 
L 4.296875 0 
L 4.296875 8.203125 
L 38.09375 47.515625 
L 5.515625 47.515625 
z
" id="DejaVuSans-122"/>
       <path d="M 45.40625 46.390625 
L 45.40625 75.984375 
L 54.390625 75.984375 
L 54.390625 0 
L 45.40625 0 
L 45.40625 8.203125 
Q 42.578125 3.328125 38.25 0.953125 
Q 33.9375 -1.421875 27.875 -1.421875 
Q 17.96875 -1.421875 11.734375 6.484375 
Q 5.515625 14.40625 5.515625 27.296875 
Q 5.515625 40.1875 11.734375 48.09375 
Q 17.96875 56 27.875 56 
Q 33.9375 56 38.25 53.625 
Q 42.578125 51.265625 45.40625 46.390625 
z
M 14.796875 27.296875 
Q 14.796875 17.390625 18.875 11.75 
Q 22.953125 6.109375 30.078125 6.109375 
Q 37.203125 6.109375 41.296875 11.75 
Q 45.40625 17.390625 45.40625 27.296875 
Q 45.40625 37.203125 41.296875 42.84375 
Q 37.203125 48.484375 30.078125 48.484375 
Q 22.953125 48.484375 18.875 42.84375 
Q 14.796875 37.203125 14.796875 27.296875 
z
" id="DejaVuSans-100"/>
       <path d="M 28.609375 0 
L 0.78125 72.90625 
L 11.078125 72.90625 
L 34.1875 11.53125 
L 57.328125 72.90625 
L 67.578125 72.90625 
L 39.796875 0 
z
" id="DejaVuSans-86"/>
       <path d="M 39.40625 66.21875 
Q 28.65625 66.21875 22.328125 58.203125 
Q 16.015625 50.203125 16.015625 36.375 
Q 16.015625 22.609375 22.328125 14.59375 
Q 28.65625 6.59375 39.40625 6.59375 
Q 50.140625 6.59375 56.421875 14.59375 
Q 62.703125 22.609375 62.703125 36.375 
Q 62.703125 50.203125 56.421875 58.203125 
Q 50.140625 66.21875 39.40625 66.21875 
z
M 39.40625 74.21875 
Q 54.734375 74.21875 63.90625 63.9375 
Q 73.09375 53.65625 73.09375 36.375 
Q 73.09375 19.140625 63.90625 8.859375 
Q 54.734375 -1.421875 39.40625 -1.421875 
Q 24.03125 -1.421875 14.8125 8.828125 
Q 5.609375 19.09375 5.609375 36.375 
Q 5.609375 53.65625 14.8125 63.9375 
Q 24.03125 74.21875 39.40625 74.21875 
z
" id="DejaVuSans-79"/>
      </defs>
      <use xlink:href="#DejaVuSans-78"/>
      <use x="74.804688" xlink:href="#DejaVuSans-111"/>
      <use x="135.986328" xlink:href="#DejaVuSans-114"/>
      <use x="175.349609" xlink:href="#DejaVuSans-109"/>
      <use x="272.761719" xlink:href="#DejaVuSans-97"/>
      <use x="334.041016" xlink:href="#DejaVuSans-108"/>
      <use x="361.824219" xlink:href="#DejaVuSans-105"/>
      <use x="389.607422" xlink:href="#DejaVuSans-122"/>
      <use x="442.097656" xlink:href="#DejaVuSans-101"/>
      <use x="503.621094" xlink:href="#DejaVuSans-100"/>
      <use x="567.097656" xlink:href="#DejaVuSans-32"/>
      <use x="598.884766" xlink:href="#DejaVuSans-86"/>
      <use x="665.542969" xlink:href="#DejaVuSans-79"/>
      <use x="744.253906" xlink:href="#DejaVuSans-79"/>
     </g>
    </g>
    <g id="line2d_32">
     <path d="M 66.6 69.248563 
L 86.6 69.248563 
" style="fill:none;stroke:#a6a6a6;stroke-linecap:square;stroke-width:1.5;"/>
    </g>
    <g id="line2d_33"/>
    <g id="text_17">
     <!-- Normalized SSO -->
     <g style="fill:#ffffff;" transform="translate(94.6 72.748563)scale(0.1 -0.1)">
      <use xlink:href="#DejaVuSans-78"/>
      <use x="74.804688" xlink:href="#DejaVuSans-111"/>
      <use x="135.986328" xlink:href="#DejaVuSans-114"/>
      <use x="175.349609" xlink:href="#DejaVuSans-109"/>
      <use x="272.761719" xlink:href="#DejaVuSans-97"/>
      <use x="334.041016" xlink:href="#DejaVuSans-108"/>
      <use x="361.824219" xlink:href="#DejaVuSans-105"/>
      <use x="389.607422" xlink:href="#DejaVuSans-122"/>
      <use x="442.097656" xlink:href="#DejaVuSans-101"/>
      <use x="503.621094" xlink:href="#DejaVuSans-100"/>
      <use x="567.097656" xlink:href="#DejaVuSans-32"/>
      <use x="598.884766" xlink:href="#DejaVuSans-83"/>
      <use x="662.361328" xlink:href="#DejaVuSans-83"/>
      <use x="725.837891" xlink:href="#DejaVuSans-79"/>
     </g>
    </g>
    <g id="line2d_34">
     <path d="M 66.6 83.926688 
L 86.6 83.926688 
" style="fill:none;stroke:#40ff00;stroke-linecap:square;stroke-width:1.5;"/>
    </g>
    <g id="line2d_35"/>
    <g id="text_18">
     <!-- Normalized AAPL -->
     <g style="fill:#ffffff;" transform="translate(94.6 87.426688)scale(0.1 -0.1)">
      <defs>
       <path d="M 34.1875 63.1875 
L 20.796875 26.90625 
L 47.609375 26.90625 
z
M 28.609375 72.90625 
L 39.796875 72.90625 
L 67.578125 0 
L 57.328125 0 
L 50.6875 18.703125 
L 17.828125 18.703125 
L 11.1875 0 
L 0.78125 0 
z
" id="DejaVuSans-65"/>
       <path d="M 9.8125 72.90625 
L 19.671875 72.90625 
L 19.671875 8.296875 
L 55.171875 8.296875 
L 55.171875 0 
L 9.8125 0 
z
" id="DejaVuSans-76"/>
      </defs>
      <use xlink:href="#DejaVuSans-78"/>
      <use x="74.804688" xlink:href="#DejaVuSans-111"/>
      <use x="135.986328" xlink:href="#DejaVuSans-114"/>
      <use x="175.349609" xlink:href="#DejaVuSans-109"/>
      <use x="272.761719" xlink:href="#DejaVuSans-97"/>
      <use x="334.041016" xlink:href="#DejaVuSans-108"/>
      <use x="361.824219" xlink:href="#DejaVuSans-105"/>
      <use x="389.607422" xlink:href="#DejaVuSans-122"/>
      <use x="442.097656" xlink:href="#DejaVuSans-101"/>
      <use x="503.621094" xlink:href="#DejaVuSans-100"/>
      <use x="567.097656" xlink:href="#DejaVuSans-32"/>
      <use x="598.884766" xlink:href="#DejaVuSans-65"/>
      <use x="670.042969" xlink:href="#DejaVuSans-65"/>
      <use x="738.451172" xlink:href="#DejaVuSans-80"/>
      <use x="798.753906" xlink:href="#DejaVuSans-76"/>
     </g>
    </g>
    <g id="line2d_36">
     <path d="M 66.6 98.604813 
L 86.6 98.604813 
" style="fill:none;stroke:#737373;stroke-linecap:square;stroke-width:1.5;"/>
    </g>
    <g id="line2d_37"/>
    <g id="text_19">
     <!-- Normalized TSLA -->
     <g style="fill:#ffffff;" transform="translate(94.6 102.104813)scale(0.1 -0.1)">
      <defs>
       <path d="M -0.296875 72.90625 
L 61.375 72.90625 
L 61.375 64.59375 
L 35.5 64.59375 
L 35.5 0 
L 25.59375 0 
L 25.59375 64.59375 
L -0.296875 64.59375 
z
" id="DejaVuSans-84"/>
      </defs>
      <use xlink:href="#DejaVuSans-78"/>
      <use x="74.804688" xlink:href="#DejaVuSans-111"/>
      <use x="135.986328" xlink:href="#DejaVuSans-114"/>
      <use x="175.349609" xlink:href="#DejaVuSans-109"/>
      <use x="272.761719" xlink:href="#DejaVuSans-97"/>
      <use x="334.041016" xlink:href="#DejaVuSans-108"/>
      <use x="361.824219" xlink:href="#DejaVuSans-105"/>
      <use x="389.607422" xlink:href="#DejaVuSans-122"/>
      <use x="442.097656" xlink:href="#DejaVuSans-101"/>
      <use x="503.621094" xlink:href="#DejaVuSans-100"/>
      <use x="567.097656" xlink:href="#DejaVuSans-32"/>
      <use x="598.884766" xlink:href="#DejaVuSans-84"/>
      <use x="659.96875" xlink:href="#DejaVuSans-83"/>
      <use x="723.445312" xlink:href="#DejaVuSans-76"/>
      <use x="781.408203" xlink:href="#DejaVuSans-65"/>
     </g>
    </g>
    <g id="line2d_38">
     <path d="M 66.6 113.282938 
L 86.6 113.282938 
" style="fill:none;stroke:#404040;stroke-linecap:square;stroke-width:1.5;"/>
    </g>
    <g id="line2d_39"/>
    <g id="text_20">
     <!-- Normalized KO -->
     <g style="fill:#ffffff;" transform="translate(94.6 116.782938)scale(0.1 -0.1)">
      <defs>
       <path d="M 9.8125 72.90625 
L 19.671875 72.90625 
L 19.671875 42.09375 
L 52.390625 72.90625 
L 65.09375 72.90625 
L 28.90625 38.921875 
L 67.671875 0 
L 54.6875 0 
L 19.671875 35.109375 
L 19.671875 0 
L 9.8125 0 
z
" id="DejaVuSans-75"/>
      </defs>
      <use xlink:href="#DejaVuSans-78"/>
      <use x="74.804688" xlink:href="#DejaVuSans-111"/>
      <use x="135.986328" xlink:href="#DejaVuSans-114"/>
      <use x="175.349609" xlink:href="#DejaVuSans-109"/>
      <use x="272.761719" xlink:href="#DejaVuSans-97"/>
      <use x="334.041016" xlink:href="#DejaVuSans-108"/>
      <use x="361.824219" xlink:href="#DejaVuSans-105"/>
      <use x="389.607422" xlink:href="#DejaVuSans-122"/>
      <use x="442.097656" xlink:href="#DejaVuSans-101"/>
      <use x="503.621094" xlink:href="#DejaVuSans-100"/>
      <use x="567.097656" xlink:href="#DejaVuSans-32"/>
      <use x="598.884766" xlink:href="#DejaVuSans-75"/>
      <use x="658.960938" xlink:href="#DejaVuSans-79"/>
     </g>
    </g>
   </g>
  </g>
 </g>
 <defs>
  <clipPath id="p6b3063c1db">
   <rect height="266.112" width="357.12" x="57.6" y="41.472"/>
  </clipPath>
 </defs>
</svg>
