<?xml version="1.0" encoding="utf-8" standalone="no"?>
<!DOCTYPE svg PUBLIC "-//W3C//DTD SVG 1.1//EN"
  "http://www.w3.org/Graphics/SVG/1.1/DTD/svg11.dtd">
<!-- Created with matplotlib (https://matplotlib.org/) -->
<svg height="345.6pt" version="1.1" viewBox="0 0 460.8 345.6" width="460.8pt" xmlns="http://www.w3.org/2000/svg" xmlns:xlink="http://www.w3.org/1999/xlink">
 <metadata>
  <rdf:RDF xmlns:cc="http://creativecommons.org/ns#" xmlns:dc="http://purl.org/dc/elements/1.1/" xmlns:rdf="http://www.w3.org/1999/02/22-rdf-syntax-ns#">
   <cc:Work>
    <dc:type rdf:resource="http://purl.org/dc/dcmitype/StillImage"/>
    <dc:date>2021-01-09T17:29:51.708066</dc:date>
    <dc:format>image/svg+xml</dc:format>
    <dc:creator>
     <cc:Agent>
      <dc:title>Matplotlib v3.3.3, https://matplotlib.org/</dc:title>
     </cc:Agent>
    </dc:creator>
   </cc:Work>
  </rdf:RDF>
 </metadata>
 <defs>
  <style type="text/css">*{stroke-linecap:butt;stroke-linejoin:round;}</style>
 </defs>
 <g id="figure_1">
  <g id="patch_1">
   <path d="M 0 345.6 
L 460.8 345.6 
L 460.8 0 
L 0 0 
z
" style="fill:#ffffff;"/>
  </g>
  <g id="axes_1">
   <g id="patch_2">
    <path d="M 57.6 307.584 
L 414.72 307.584 
L 414.72 41.472 
L 57.6 41.472 
z
"/>
   </g>
   <g id="matplotlib.axis_1">
    <g id="xtick_1">
     <g id="line2d_1">
      <path clip-path="url(#pa8f7e1dfeb)" d="M 72.544416 307.584 
L 72.544416 41.472 
" style="fill:none;stroke:#4d4d4d;stroke-linecap:square;stroke-width:0.8;"/>
     </g>
     <g id="line2d_2">
      <defs>
       <path d="M 0 0 
L 0 3.5 
" id="me217fc7424" style="stroke:#000000;stroke-width:0.8;"/>
      </defs>
      <g>
       <use style="stroke:#000000;stroke-width:0.8;" x="72.544416" xlink:href="#me217fc7424" y="307.584"/>
      </g>
     </g>
     <g id="text_1">
      <!-- 0 -->
      <g transform="translate(69.363166 322.182437)scale(0.1 -0.1)">
       <defs>
        <path d="M 31.78125 66.40625 
Q 24.171875 66.40625 20.328125 58.90625 
Q 16.5 51.421875 16.5 36.375 
Q 16.5 21.390625 20.328125 13.890625 
Q 24.171875 6.390625 31.78125 6.390625 
Q 39.453125 6.390625 43.28125 13.890625 
Q 47.125 21.390625 47.125 36.375 
Q 47.125 51.421875 43.28125 58.90625 
Q 39.453125 66.40625 31.78125 66.40625 
z
M 31.78125 74.21875 
Q 44.046875 74.21875 50.515625 64.515625 
Q 56.984375 54.828125 56.984375 36.375 
Q 56.984375 17.96875 50.515625 8.265625 
Q 44.046875 -1.421875 31.78125 -1.421875 
Q 19.53125 -1.421875 13.0625 8.265625 
Q 6.59375 17.96875 6.59375 36.375 
Q 6.59375 54.828125 13.0625 64.515625 
Q 19.53125 74.21875 31.78125 74.21875 
z
" id="DejaVuSans-48"/>
       </defs>
       <use xlink:href="#DejaVuSans-48"/>
      </g>
     </g>
    </g>
    <g id="xtick_2">
     <g id="line2d_3">
      <path clip-path="url(#pa8f7e1dfeb)" d="M 136.96 307.584 
L 136.96 41.472 
" style="fill:none;stroke:#4d4d4d;stroke-linecap:square;stroke-width:0.8;"/>
     </g>
     <g id="line2d_4">
      <g>
       <use style="stroke:#000000;stroke-width:0.8;" x="136.96" xlink:href="#me217fc7424" y="307.584"/>
      </g>
     </g>
     <g id="text_2">
      <!-- 50 -->
      <g transform="translate(130.5975 322.182437)scale(0.1 -0.1)">
       <defs>
        <path d="M 10.796875 72.90625 
L 49.515625 72.90625 
L 49.515625 64.59375 
L 19.828125 64.59375 
L 19.828125 46.734375 
Q 21.96875 47.46875 24.109375 47.828125 
Q 26.265625 48.1875 28.421875 48.1875 
Q 40.625 48.1875 47.75 41.5 
Q 54.890625 34.8125 54.890625 23.390625 
Q 54.890625 11.625 47.5625 5.09375 
Q 40.234375 -1.421875 26.90625 -1.421875 
Q 22.3125 -1.421875 17.546875 -0.640625 
Q 12.796875 0.140625 7.71875 1.703125 
L 7.71875 11.625 
Q 12.109375 9.234375 16.796875 8.0625 
Q 21.484375 6.890625 26.703125 6.890625 
Q 35.15625 6.890625 40.078125 11.328125 
Q 45.015625 15.765625 45.015625 23.390625 
Q 45.015625 31 40.078125 35.4375 
Q 35.15625 39.890625 26.703125 39.890625 
Q 22.75 39.890625 18.8125 39.015625 
Q 14.890625 38.140625 10.796875 36.28125 
z
" id="DejaVuSans-53"/>
       </defs>
       <use xlink:href="#DejaVuSans-53"/>
       <use x="63.623047" xlink:href="#DejaVuSans-48"/>
      </g>
     </g>
    </g>
    <g id="xtick_3">
     <g id="line2d_5">
      <path clip-path="url(#pa8f7e1dfeb)" d="M 201.375584 307.584 
L 201.375584 41.472 
" style="fill:none;stroke:#4d4d4d;stroke-linecap:square;stroke-width:0.8;"/>
     </g>
     <g id="line2d_6">
      <g>
       <use style="stroke:#000000;stroke-width:0.8;" x="201.375584" xlink:href="#me217fc7424" y="307.584"/>
      </g>
     </g>
     <g id="text_3">
      <!-- 100 -->
      <g transform="translate(191.831834 322.182437)scale(0.1 -0.1)">
       <defs>
        <path d="M 12.40625 8.296875 
L 28.515625 8.296875 
L 28.515625 63.921875 
L 10.984375 60.40625 
L 10.984375 69.390625 
L 28.421875 72.90625 
L 38.28125 72.90625 
L 38.28125 8.296875 
L 54.390625 8.296875 
L 54.390625 0 
L 12.40625 0 
z
" id="DejaVuSans-49"/>
       </defs>
       <use xlink:href="#DejaVuSans-49"/>
       <use x="63.623047" xlink:href="#DejaVuSans-48"/>
       <use x="127.246094" xlink:href="#DejaVuSans-48"/>
      </g>
     </g>
    </g>
    <g id="xtick_4">
     <g id="line2d_7">
      <path clip-path="url(#pa8f7e1dfeb)" d="M 265.791169 307.584 
L 265.791169 41.472 
" style="fill:none;stroke:#4d4d4d;stroke-linecap:square;stroke-width:0.8;"/>
     </g>
     <g id="line2d_8">
      <g>
       <use style="stroke:#000000;stroke-width:0.8;" x="265.791169" xlink:href="#me217fc7424" y="307.584"/>
      </g>
     </g>
     <g id="text_4">
      <!-- 150 -->
      <g transform="translate(256.247419 322.182437)scale(0.1 -0.1)">
       <use xlink:href="#DejaVuSans-49"/>
       <use x="63.623047" xlink:href="#DejaVuSans-53"/>
       <use x="127.246094" xlink:href="#DejaVuSans-48"/>
      </g>
     </g>
    </g>
    <g id="xtick_5">
     <g id="line2d_9">
      <path clip-path="url(#pa8f7e1dfeb)" d="M 330.206753 307.584 
L 330.206753 41.472 
" style="fill:none;stroke:#4d4d4d;stroke-linecap:square;stroke-width:0.8;"/>
     </g>
     <g id="line2d_10">
      <g>
       <use style="stroke:#000000;stroke-width:0.8;" x="330.206753" xlink:href="#me217fc7424" y="307.584"/>
      </g>
     </g>
     <g id="text_5">
      <!-- 200 -->
      <g transform="translate(320.663003 322.182437)scale(0.1 -0.1)">
       <defs>
        <path d="M 19.1875 8.296875 
L 53.609375 8.296875 
L 53.609375 0 
L 7.328125 0 
L 7.328125 8.296875 
Q 12.9375 14.109375 22.625 23.890625 
Q 32.328125 33.6875 34.8125 36.53125 
Q 39.546875 41.84375 41.421875 45.53125 
Q 43.3125 49.21875 43.3125 52.78125 
Q 43.3125 58.59375 39.234375 62.25 
Q 35.15625 65.921875 28.609375 65.921875 
Q 23.96875 65.921875 18.8125 64.3125 
Q 13.671875 62.703125 7.8125 59.421875 
L 7.8125 69.390625 
Q 13.765625 71.78125 18.9375 73 
Q 24.125 74.21875 28.421875 74.21875 
Q 39.75 74.21875 46.484375 68.546875 
Q 53.21875 62.890625 53.21875 53.421875 
Q 53.21875 48.921875 51.53125 44.890625 
Q 49.859375 40.875 45.40625 35.40625 
Q 44.1875 33.984375 37.640625 27.21875 
Q 31.109375 20.453125 19.1875 8.296875 
z
" id="DejaVuSans-50"/>
       </defs>
       <use xlink:href="#DejaVuSans-50"/>
       <use x="63.623047" xlink:href="#DejaVuSans-48"/>
       <use x="127.246094" xlink:href="#DejaVuSans-48"/>
      </g>
     </g>
    </g>
    <g id="xtick_6">
     <g id="line2d_11">
      <path clip-path="url(#pa8f7e1dfeb)" d="M 394.622338 307.584 
L 394.622338 41.472 
" style="fill:none;stroke:#4d4d4d;stroke-linecap:square;stroke-width:0.8;"/>
     </g>
     <g id="line2d_12">
      <g>
       <use style="stroke:#000000;stroke-width:0.8;" x="394.622338" xlink:href="#me217fc7424" y="307.584"/>
      </g>
     </g>
     <g id="text_6">
      <!-- 250 -->
      <g transform="translate(385.078588 322.182437)scale(0.1 -0.1)">
       <use xlink:href="#DejaVuSans-50"/>
       <use x="63.623047" xlink:href="#DejaVuSans-53"/>
       <use x="127.246094" xlink:href="#DejaVuSans-48"/>
      </g>
     </g>
    </g>
    <g id="text_7">
     <!-- Point -->
     <g transform="translate(223.749063 335.860562)scale(0.1 -0.1)">
      <defs>
       <path d="M 19.671875 64.796875 
L 19.671875 37.40625 
L 32.078125 37.40625 
Q 38.96875 37.40625 42.71875 40.96875 
Q 46.484375 44.53125 46.484375 51.125 
Q 46.484375 57.671875 42.71875 61.234375 
Q 38.96875 64.796875 32.078125 64.796875 
z
M 9.8125 72.90625 
L 32.078125 72.90625 
Q 44.34375 72.90625 50.609375 67.359375 
Q 56.890625 61.8125 56.890625 51.125 
Q 56.890625 40.328125 50.609375 34.8125 
Q 44.34375 29.296875 32.078125 29.296875 
L 19.671875 29.296875 
L 19.671875 0 
L 9.8125 0 
z
" id="DejaVuSans-80"/>
       <path d="M 30.609375 48.390625 
Q 23.390625 48.390625 19.1875 42.75 
Q 14.984375 37.109375 14.984375 27.296875 
Q 14.984375 17.484375 19.15625 11.84375 
Q 23.34375 6.203125 30.609375 6.203125 
Q 37.796875 6.203125 41.984375 11.859375 
Q 46.1875 17.53125 46.1875 27.296875 
Q 46.1875 37.015625 41.984375 42.703125 
Q 37.796875 48.390625 30.609375 48.390625 
z
M 30.609375 56 
Q 42.328125 56 49.015625 48.375 
Q 55.71875 40.765625 55.71875 27.296875 
Q 55.71875 13.875 49.015625 6.21875 
Q 42.328125 -1.421875 30.609375 -1.421875 
Q 18.84375 -1.421875 12.171875 6.21875 
Q 5.515625 13.875 5.515625 27.296875 
Q 5.515625 40.765625 12.171875 48.375 
Q 18.84375 56 30.609375 56 
z
" id="DejaVuSans-111"/>
       <path d="M 9.421875 54.6875 
L 18.40625 54.6875 
L 18.40625 0 
L 9.421875 0 
z
M 9.421875 75.984375 
L 18.40625 75.984375 
L 18.40625 64.59375 
L 9.421875 64.59375 
z
" id="DejaVuSans-105"/>
       <path d="M 54.890625 33.015625 
L 54.890625 0 
L 45.90625 0 
L 45.90625 32.71875 
Q 45.90625 40.484375 42.875 44.328125 
Q 39.84375 48.1875 33.796875 48.1875 
Q 26.515625 48.1875 22.3125 43.546875 
Q 18.109375 38.921875 18.109375 30.90625 
L 18.109375 0 
L 9.078125 0 
L 9.078125 54.6875 
L 18.109375 54.6875 
L 18.109375 46.1875 
Q 21.34375 51.125 25.703125 53.5625 
Q 30.078125 56 35.796875 56 
Q 45.21875 56 50.046875 50.171875 
Q 54.890625 44.34375 54.890625 33.015625 
z
" id="DejaVuSans-110"/>
       <path d="M 18.3125 70.21875 
L 18.3125 54.6875 
L 36.8125 54.6875 
L 36.8125 47.703125 
L 18.3125 47.703125 
L 18.3125 18.015625 
Q 18.3125 11.328125 20.140625 9.421875 
Q 21.96875 7.515625 27.59375 7.515625 
L 36.8125 7.515625 
L 36.8125 0 
L 27.59375 0 
Q 17.1875 0 13.234375 3.875 
Q 9.28125 7.765625 9.28125 18.015625 
L 9.28125 47.703125 
L 2.6875 47.703125 
L 2.6875 54.6875 
L 9.28125 54.6875 
L 9.28125 70.21875 
z
" id="DejaVuSans-116"/>
      </defs>
      <use xlink:href="#DejaVuSans-80"/>
      <use x="56.677734" xlink:href="#DejaVuSans-111"/>
      <use x="117.859375" xlink:href="#DejaVuSans-105"/>
      <use x="145.642578" xlink:href="#DejaVuSans-110"/>
      <use x="209.021484" xlink:href="#DejaVuSans-116"/>
     </g>
    </g>
   </g>
   <g id="matplotlib.axis_2">
    <g id="ytick_1">
     <g id="line2d_13">
      <path clip-path="url(#pa8f7e1dfeb)" d="M 57.6 275.503989 
L 414.72 275.503989 
" style="fill:none;stroke:#4d4d4d;stroke-linecap:square;stroke-width:0.8;"/>
     </g>
     <g id="line2d_14">
      <defs>
       <path d="M 0 0 
L -3.5 0 
" id="m6f33275408" style="stroke:#000000;stroke-width:0.8;"/>
      </defs>
      <g>
       <use style="stroke:#000000;stroke-width:0.8;" x="57.6" xlink:href="#m6f33275408" y="275.503989"/>
      </g>
     </g>
     <g id="text_8">
      <!-- −4 -->
      <g transform="translate(35.857813 279.303208)scale(0.1 -0.1)">
       <defs>
        <path d="M 10.59375 35.5 
L 73.1875 35.5 
L 73.1875 27.203125 
L 10.59375 27.203125 
z
" id="DejaVuSans-8722"/>
        <path d="M 37.796875 64.3125 
L 12.890625 25.390625 
L 37.796875 25.390625 
z
M 35.203125 72.90625 
L 47.609375 72.90625 
L 47.609375 25.390625 
L 58.015625 25.390625 
L 58.015625 17.1875 
L 47.609375 17.1875 
L 47.609375 0 
L 37.796875 0 
L 37.796875 17.1875 
L 4.890625 17.1875 
L 4.890625 26.703125 
z
" id="DejaVuSans-52"/>
       </defs>
       <use xlink:href="#DejaVuSans-8722"/>
       <use x="83.789062" xlink:href="#DejaVuSans-52"/>
      </g>
     </g>
    </g>
    <g id="ytick_2">
     <g id="line2d_15">
      <path clip-path="url(#pa8f7e1dfeb)" d="M 57.6 228.944266 
L 414.72 228.944266 
" style="fill:none;stroke:#4d4d4d;stroke-linecap:square;stroke-width:0.8;"/>
     </g>
     <g id="line2d_16">
      <g>
       <use style="stroke:#000000;stroke-width:0.8;" x="57.6" xlink:href="#m6f33275408" y="228.944266"/>
      </g>
     </g>
     <g id="text_9">
      <!-- −2 -->
      <g transform="translate(35.857813 232.743484)scale(0.1 -0.1)">
       <use xlink:href="#DejaVuSans-8722"/>
       <use x="83.789062" xlink:href="#DejaVuSans-50"/>
      </g>
     </g>
    </g>
    <g id="ytick_3">
     <g id="line2d_17">
      <path clip-path="url(#pa8f7e1dfeb)" d="M 57.6 182.384542 
L 414.72 182.384542 
" style="fill:none;stroke:#4d4d4d;stroke-linecap:square;stroke-width:0.8;"/>
     </g>
     <g id="line2d_18">
      <g>
       <use style="stroke:#000000;stroke-width:0.8;" x="57.6" xlink:href="#m6f33275408" y="182.384542"/>
      </g>
     </g>
     <g id="text_10">
      <!-- 0 -->
      <g transform="translate(44.2375 186.183761)scale(0.1 -0.1)">
       <use xlink:href="#DejaVuSans-48"/>
      </g>
     </g>
    </g>
    <g id="ytick_4">
     <g id="line2d_19">
      <path clip-path="url(#pa8f7e1dfeb)" d="M 57.6 135.824819 
L 414.72 135.824819 
" style="fill:none;stroke:#4d4d4d;stroke-linecap:square;stroke-width:0.8;"/>
     </g>
     <g id="line2d_20">
      <g>
       <use style="stroke:#000000;stroke-width:0.8;" x="57.6" xlink:href="#m6f33275408" y="135.824819"/>
      </g>
     </g>
     <g id="text_11">
      <!-- 2 -->
      <g transform="translate(44.2375 139.624037)scale(0.1 -0.1)">
       <use xlink:href="#DejaVuSans-50"/>
      </g>
     </g>
    </g>
    <g id="ytick_5">
     <g id="line2d_21">
      <path clip-path="url(#pa8f7e1dfeb)" d="M 57.6 89.265095 
L 414.72 89.265095 
" style="fill:none;stroke:#4d4d4d;stroke-linecap:square;stroke-width:0.8;"/>
     </g>
     <g id="line2d_22">
      <g>
       <use style="stroke:#000000;stroke-width:0.8;" x="57.6" xlink:href="#m6f33275408" y="89.265095"/>
      </g>
     </g>
     <g id="text_12">
      <!-- 4 -->
      <g transform="translate(44.2375 93.064314)scale(0.1 -0.1)">
       <use xlink:href="#DejaVuSans-52"/>
      </g>
     </g>
    </g>
    <g id="ytick_6">
     <g id="line2d_23">
      <path clip-path="url(#pa8f7e1dfeb)" d="M 57.6 42.705372 
L 414.72 42.705372 
" style="fill:none;stroke:#4d4d4d;stroke-linecap:square;stroke-width:0.8;"/>
     </g>
     <g id="line2d_24">
      <g>
       <use style="stroke:#000000;stroke-width:0.8;" x="57.6" xlink:href="#m6f33275408" y="42.705372"/>
      </g>
     </g>
     <g id="text_13">
      <!-- 6 -->
      <g transform="translate(44.2375 46.504591)scale(0.1 -0.1)">
       <defs>
        <path d="M 33.015625 40.375 
Q 26.375 40.375 22.484375 35.828125 
Q 18.609375 31.296875 18.609375 23.390625 
Q 18.609375 15.53125 22.484375 10.953125 
Q 26.375 6.390625 33.015625 6.390625 
Q 39.65625 6.390625 43.53125 10.953125 
Q 47.40625 15.53125 47.40625 23.390625 
Q 47.40625 31.296875 43.53125 35.828125 
Q 39.65625 40.375 33.015625 40.375 
z
M 52.59375 71.296875 
L 52.59375 62.3125 
Q 48.875 64.0625 45.09375 64.984375 
Q 41.3125 65.921875 37.59375 65.921875 
Q 27.828125 65.921875 22.671875 59.328125 
Q 17.53125 52.734375 16.796875 39.40625 
Q 19.671875 43.65625 24.015625 45.921875 
Q 28.375 48.1875 33.59375 48.1875 
Q 44.578125 48.1875 50.953125 41.515625 
Q 57.328125 34.859375 57.328125 23.390625 
Q 57.328125 12.15625 50.6875 5.359375 
Q 44.046875 -1.421875 33.015625 -1.421875 
Q 20.359375 -1.421875 13.671875 8.265625 
Q 6.984375 17.96875 6.984375 36.375 
Q 6.984375 53.65625 15.1875 63.9375 
Q 23.390625 74.21875 37.203125 74.21875 
Q 40.921875 74.21875 44.703125 73.484375 
Q 48.484375 72.75 52.59375 71.296875 
z
" id="DejaVuSans-54"/>
       </defs>
       <use xlink:href="#DejaVuSans-54"/>
      </g>
     </g>
    </g>
    <g id="text_14">
     <!-- Amplitude -->
     <g transform="translate(29.778125 200.150656)rotate(-90)scale(0.1 -0.1)">
      <defs>
       <path d="M 34.1875 63.1875 
L 20.796875 26.90625 
L 47.609375 26.90625 
z
M 28.609375 72.90625 
L 39.796875 72.90625 
L 67.578125 0 
L 57.328125 0 
L 50.6875 18.703125 
L 17.828125 18.703125 
L 11.1875 0 
L 0.78125 0 
z
" id="DejaVuSans-65"/>
       <path d="M 52 44.1875 
Q 55.375 50.25 60.0625 53.125 
Q 64.75 56 71.09375 56 
Q 79.640625 56 84.28125 50.015625 
Q 88.921875 44.046875 88.921875 33.015625 
L 88.921875 0 
L 79.890625 0 
L 79.890625 32.71875 
Q 79.890625 40.578125 77.09375 44.375 
Q 74.3125 48.1875 68.609375 48.1875 
Q 61.625 48.1875 57.5625 43.546875 
Q 53.515625 38.921875 53.515625 30.90625 
L 53.515625 0 
L 44.484375 0 
L 44.484375 32.71875 
Q 44.484375 40.625 41.703125 44.40625 
Q 38.921875 48.1875 33.109375 48.1875 
Q 26.21875 48.1875 22.15625 43.53125 
Q 18.109375 38.875 18.109375 30.90625 
L 18.109375 0 
L 9.078125 0 
L 9.078125 54.6875 
L 18.109375 54.6875 
L 18.109375 46.1875 
Q 21.1875 51.21875 25.484375 53.609375 
Q 29.78125 56 35.6875 56 
Q 41.65625 56 45.828125 52.96875 
Q 50 49.953125 52 44.1875 
z
" id="DejaVuSans-109"/>
       <path d="M 18.109375 8.203125 
L 18.109375 -20.796875 
L 9.078125 -20.796875 
L 9.078125 54.6875 
L 18.109375 54.6875 
L 18.109375 46.390625 
Q 20.953125 51.265625 25.265625 53.625 
Q 29.59375 56 35.59375 56 
Q 45.5625 56 51.78125 48.09375 
Q 58.015625 40.1875 58.015625 27.296875 
Q 58.015625 14.40625 51.78125 6.484375 
Q 45.5625 -1.421875 35.59375 -1.421875 
Q 29.59375 -1.421875 25.265625 0.953125 
Q 20.953125 3.328125 18.109375 8.203125 
z
M 48.6875 27.296875 
Q 48.6875 37.203125 44.609375 42.84375 
Q 40.53125 48.484375 33.40625 48.484375 
Q 26.265625 48.484375 22.1875 42.84375 
Q 18.109375 37.203125 18.109375 27.296875 
Q 18.109375 17.390625 22.1875 11.75 
Q 26.265625 6.109375 33.40625 6.109375 
Q 40.53125 6.109375 44.609375 11.75 
Q 48.6875 17.390625 48.6875 27.296875 
z
" id="DejaVuSans-112"/>
       <path d="M 9.421875 75.984375 
L 18.40625 75.984375 
L 18.40625 0 
L 9.421875 0 
z
" id="DejaVuSans-108"/>
       <path d="M 8.5 21.578125 
L 8.5 54.6875 
L 17.484375 54.6875 
L 17.484375 21.921875 
Q 17.484375 14.15625 20.5 10.265625 
Q 23.53125 6.390625 29.59375 6.390625 
Q 36.859375 6.390625 41.078125 11.03125 
Q 45.3125 15.671875 45.3125 23.6875 
L 45.3125 54.6875 
L 54.296875 54.6875 
L 54.296875 0 
L 45.3125 0 
L 45.3125 8.40625 
Q 42.046875 3.421875 37.71875 1 
Q 33.40625 -1.421875 27.6875 -1.421875 
Q 18.265625 -1.421875 13.375 4.4375 
Q 8.5 10.296875 8.5 21.578125 
z
M 31.109375 56 
z
" id="DejaVuSans-117"/>
       <path d="M 45.40625 46.390625 
L 45.40625 75.984375 
L 54.390625 75.984375 
L 54.390625 0 
L 45.40625 0 
L 45.40625 8.203125 
Q 42.578125 3.328125 38.25 0.953125 
Q 33.9375 -1.421875 27.875 -1.421875 
Q 17.96875 -1.421875 11.734375 6.484375 
Q 5.515625 14.40625 5.515625 27.296875 
Q 5.515625 40.1875 11.734375 48.09375 
Q 17.96875 56 27.875 56 
Q 33.9375 56 38.25 53.625 
Q 42.578125 51.265625 45.40625 46.390625 
z
M 14.796875 27.296875 
Q 14.796875 17.390625 18.875 11.75 
Q 22.953125 6.109375 30.078125 6.109375 
Q 37.203125 6.109375 41.296875 11.75 
Q 45.40625 17.390625 45.40625 27.296875 
Q 45.40625 37.203125 41.296875 42.84375 
Q 37.203125 48.484375 30.078125 48.484375 
Q 22.953125 48.484375 18.875 42.84375 
Q 14.796875 37.203125 14.796875 27.296875 
z
" id="DejaVuSans-100"/>
       <path d="M 56.203125 29.59375 
L 56.203125 25.203125 
L 14.890625 25.203125 
Q 15.484375 15.921875 20.484375 11.0625 
Q 25.484375 6.203125 34.421875 6.203125 
Q 39.59375 6.203125 44.453125 7.46875 
Q 49.3125 8.734375 54.109375 11.28125 
L 54.109375 2.78125 
Q 49.265625 0.734375 44.1875 -0.34375 
Q 39.109375 -1.421875 33.890625 -1.421875 
Q 20.796875 -1.421875 13.15625 6.1875 
Q 5.515625 13.8125 5.515625 26.8125 
Q 5.515625 40.234375 12.765625 48.109375 
Q 20.015625 56 32.328125 56 
Q 43.359375 56 49.78125 48.890625 
Q 56.203125 41.796875 56.203125 29.59375 
z
M 47.21875 32.234375 
Q 47.125 39.59375 43.09375 43.984375 
Q 39.0625 48.390625 32.421875 48.390625 
Q 24.90625 48.390625 20.390625 44.140625 
Q 15.875 39.890625 15.1875 32.171875 
z
" id="DejaVuSans-101"/>
      </defs>
      <use xlink:href="#DejaVuSans-65"/>
      <use x="68.408203" xlink:href="#DejaVuSans-109"/>
      <use x="165.820312" xlink:href="#DejaVuSans-112"/>
      <use x="229.296875" xlink:href="#DejaVuSans-108"/>
      <use x="257.080078" xlink:href="#DejaVuSans-105"/>
      <use x="284.863281" xlink:href="#DejaVuSans-116"/>
      <use x="324.072266" xlink:href="#DejaVuSans-117"/>
      <use x="387.451172" xlink:href="#DejaVuSans-100"/>
      <use x="450.927734" xlink:href="#DejaVuSans-101"/>
     </g>
    </g>
   </g>
   <g id="line2d_25">
    <path clip-path="url(#pa8f7e1dfeb)" d="M 73.832727 53.568 
L 75.121039 120.037816 
L 76.409351 137.856968 
L 77.697662 163.41052 
L 78.985974 153.508529 
L 80.274286 158.593106 
L 81.562597 152.630091 
L 82.850909 172.018792 
L 84.139221 174.03895 
L 85.427532 187.923667 
L 86.715844 179.850571 
L 88.004156 179.443032 
L 89.292468 224.979508 
L 90.580779 206.381492 
L 91.869091 202.590441 
L 93.157403 180.969028 
L 94.445714 177.417414 
L 95.734026 194.037392 
L 97.022338 217.686197 
L 98.310649 195.880843 
L 99.598961 202.689378 
L 100.887273 182.393144 
L 102.175584 206.467132 
L 103.463896 224.368274 
L 104.752208 228.660893 
L 106.040519 201.079805 
L 107.328831 193.274239 
L 108.617143 203.665647 
L 109.905455 183.965573 
L 111.193766 199.158475 
L 112.482078 205.510846 
L 113.77039 214.896936 
L 115.058701 220.303921 
L 116.347013 199.432454 
L 117.635325 190.250494 
L 118.923636 244.425159 
L 120.211948 204.466047 
L 121.50026 202.811481 
L 122.788571 261.152698 
L 124.076883 223.982336 
L 125.365195 224.03747 
L 126.653506 208.349291 
L 127.941818 208.190512 
L 129.23013 226.759388 
L 130.518442 251.77005 
L 131.806753 233.611688 
L 133.095065 226.181938 
L 134.383377 226.335392 
L 135.671688 217.596156 
L 136.96 228.903654 
L 138.248312 211.372569 
L 139.536623 221.61802 
L 140.824935 210.249137 
L 142.113247 212.724854 
L 143.401558 237.629804 
L 144.68987 233.188182 
L 145.978182 226.739253 
L 147.266494 244.201984 
L 148.554805 218.879757 
L 149.843117 227.294265 
L 151.131429 243.586635 
L 152.41974 215.154322 
L 153.708052 227.478998 
L 154.996364 226.452982 
L 156.284675 213.376811 
L 157.572987 207.446361 
L 158.861299 256.804188 
L 160.14961 238.037241 
L 161.437922 230.595041 
L 162.726234 253.768684 
L 164.014545 231.694214 
L 165.302857 223.58589 
L 166.591169 242.915999 
L 167.879481 214.700677 
L 169.167792 212.606136 
L 170.456104 219.269072 
L 171.744416 233.815115 
L 173.032727 254.139042 
L 174.321039 221.454983 
L 175.609351 222.861799 
L 176.897662 215.355072 
L 178.185974 224.056475 
L 179.474286 228.049416 
L 180.762597 237.802421 
L 182.050909 209.155277 
L 183.339221 213.013478 
L 184.627532 218.013686 
L 185.915844 218.105004 
L 187.204156 246.721749 
L 189.780779 247.689449 
L 191.069091 206.737129 
L 192.357403 224.484372 
L 193.645714 238.117427 
L 194.934026 249.927413 
L 196.222338 216.767686 
L 197.510649 213.76562 
L 198.798961 246.670624 
L 200.087273 249.32994 
L 201.375584 238.151355 
L 202.663896 231.951968 
L 203.952208 211.580681 
L 205.240519 241.403074 
L 206.528831 219.573474 
L 207.817143 218.026017 
L 209.105455 217.988809 
L 210.393766 211.047488 
L 211.682078 203.464411 
L 212.97039 204.612203 
L 214.258701 209.139738 
L 215.547013 211.115283 
L 216.835325 207.573065 
L 218.123636 194.351318 
L 219.411948 246.174302 
L 220.70026 216.843928 
L 221.988571 295.488 
L 223.276883 217.767418 
L 224.565195 223.548302 
L 225.853506 227.008628 
L 227.141818 243.460828 
L 228.43013 218.3512 
L 229.718442 251.134637 
L 231.006753 220.959736 
L 232.295065 227.194373 
L 233.583377 263.233652 
L 234.871688 232.056465 
L 236.16 253.793704 
L 237.448312 253.793704 
L 238.736623 232.056465 
L 240.024935 263.233652 
L 241.313247 227.194373 
L 242.601558 220.959736 
L 243.88987 251.134637 
L 245.178182 218.3512 
L 246.466494 243.460828 
L 247.754805 227.008628 
L 249.043117 223.548302 
L 250.331429 217.767418 
L 251.61974 295.488 
L 252.908052 216.843928 
L 254.196364 246.174302 
L 255.484675 194.351318 
L 256.772987 207.573065 
L 258.061299 211.115283 
L 259.34961 209.139738 
L 260.637922 204.612203 
L 261.926234 203.464411 
L 264.502857 217.988809 
L 265.791169 218.026017 
L 267.079481 219.573474 
L 268.367792 241.403074 
L 269.656104 211.580681 
L 270.944416 231.951968 
L 272.232727 238.151355 
L 273.521039 249.32994 
L 274.809351 246.670624 
L 276.097662 213.76562 
L 277.385974 216.767686 
L 278.674286 249.927413 
L 279.962597 238.117427 
L 281.250909 224.484372 
L 282.539221 206.737129 
L 283.827532 247.689449 
L 286.404156 246.721749 
L 287.692468 218.105004 
L 288.980779 218.013686 
L 290.269091 213.013478 
L 291.557403 209.155277 
L 292.845714 237.802421 
L 294.134026 228.049416 
L 295.422338 224.056475 
L 296.710649 215.355072 
L 297.998961 222.861799 
L 299.287273 221.454983 
L 300.575584 254.139042 
L 301.863896 233.815115 
L 303.152208 219.269072 
L 304.440519 212.606136 
L 305.728831 214.700677 
L 307.017143 242.915999 
L 308.305455 223.58589 
L 309.593766 231.694214 
L 310.882078 253.768684 
L 312.17039 230.595041 
L 313.458701 238.037241 
L 314.747013 256.804188 
L 316.035325 207.446361 
L 317.323636 213.376811 
L 318.611948 226.452982 
L 319.90026 227.478998 
L 321.188571 215.154322 
L 322.476883 243.586635 
L 323.765195 227.294265 
L 325.053506 218.879757 
L 326.341818 244.201984 
L 327.63013 226.739253 
L 328.918442 233.188182 
L 330.206753 237.629804 
L 331.495065 212.724854 
L 332.783377 210.249137 
L 334.071688 221.61802 
L 335.36 211.372569 
L 336.648312 228.903654 
L 337.936623 217.596156 
L 339.224935 226.335392 
L 340.513247 226.181938 
L 341.801558 233.611688 
L 343.08987 251.77005 
L 344.378182 226.759388 
L 345.666494 208.190512 
L 346.954805 208.349291 
L 348.243117 224.03747 
L 349.531429 223.982336 
L 350.81974 261.152698 
L 352.108052 202.811481 
L 353.396364 204.466047 
L 354.684675 244.425159 
L 355.972987 190.250494 
L 357.261299 199.432454 
L 358.54961 220.303921 
L 359.837922 214.896936 
L 361.126234 205.510846 
L 362.414545 199.158475 
L 363.702857 183.965573 
L 364.991169 203.665647 
L 366.279481 193.274239 
L 367.567792 201.079805 
L 368.856104 228.660893 
L 370.144416 224.368274 
L 371.432727 206.467132 
L 372.721039 182.393144 
L 374.009351 202.689378 
L 375.297662 195.880843 
L 376.585974 217.686197 
L 377.874286 194.037392 
L 379.162597 177.417414 
L 380.450909 180.969028 
L 381.739221 202.590441 
L 383.027532 206.381492 
L 384.315844 224.979508 
L 385.604156 179.443032 
L 386.892468 179.850571 
L 388.180779 187.923667 
L 389.469091 174.03895 
L 390.757403 172.018792 
L 392.045714 152.630091 
L 393.334026 158.593106 
L 394.622338 153.508529 
L 395.910649 163.41052 
L 397.198961 137.856968 
L 398.487273 120.037816 
L 398.487273 120.037816 
" style="fill:none;stroke:#d9d9d9;stroke-linecap:square;stroke-width:1.5;"/>
   </g>
   <g id="line2d_26">
    <path clip-path="url(#pa8f7e1dfeb)" d="M 73.832727 53.568 
L 75.121039 105.831695 
L 76.409351 121.401867 
L 77.697662 144.322409 
L 78.985974 138.130456 
L 80.274286 146.169271 
L 81.562597 139.775979 
L 82.850909 161.012835 
L 84.139221 155.223459 
L 85.427532 172.454235 
L 86.715844 170.634291 
L 88.004156 167.566091 
L 89.292468 192.641522 
L 90.580779 188.13409 
L 91.869091 194.160008 
L 93.157403 167.175978 
L 94.445714 163.520329 
L 95.734026 181.626307 
L 97.022338 205.321958 
L 98.310649 178.618846 
L 99.598961 192.612078 
L 100.887273 169.528341 
L 102.175584 193.128288 
L 103.463896 213.855082 
L 104.752208 212.668634 
L 106.040519 190.324546 
L 107.328831 176.936587 
L 108.617143 191.459722 
L 109.905455 170.225414 
L 111.193766 187.76612 
L 112.482078 192.719717 
L 113.77039 196.691241 
L 115.058701 217.065667 
L 116.347013 190.208214 
L 117.635325 177.543049 
L 118.923636 232.073713 
L 120.211948 192.528788 
L 121.50026 192.24414 
L 122.788571 218.307885 
L 124.076883 217.318913 
L 125.365195 210.482609 
L 126.653506 196.994046 
L 127.941818 194.680437 
L 129.23013 219.385423 
L 130.518442 264.741718 
L 131.806753 217.679761 
L 133.095065 218.258429 
L 134.383377 219.385616 
L 135.671688 208.459703 
L 136.96 213.081983 
L 138.248312 197.616807 
L 139.536623 208.177016 
L 140.824935 197.458181 
L 142.113247 199.209837 
L 143.401558 220.229328 
L 144.68987 226.384617 
L 145.978182 205.955654 
L 147.266494 251.995514 
L 148.554805 206.106546 
L 149.843117 213.949289 
L 151.131429 252.526507 
L 152.41974 204.962337 
L 153.708052 219.336478 
L 154.996364 212.467838 
L 156.284675 201.430083 
L 157.572987 195.528525 
L 158.861299 237.781974 
L 160.14961 225.133052 
L 161.437922 221.353206 
L 162.726234 272.426671 
L 164.014545 226.640616 
L 165.302857 210.908652 
L 166.591169 221.626928 
L 167.879481 201.600035 
L 169.167792 200.712332 
L 170.456104 207.895947 
L 171.744416 219.295022 
L 173.032727 233.81913 
L 174.321039 207.546183 
L 175.609351 211.101659 
L 176.897662 202.5119 
L 178.185974 210.96803 
L 179.474286 211.787674 
L 180.762597 223.675997 
L 182.050909 194.750599 
L 183.339221 200.565068 
L 184.627532 204.309692 
L 185.915844 202.821623 
L 187.204156 242.758263 
L 188.492468 234.252918 
L 189.780779 239.664821 
L 191.069091 193.256232 
L 192.357403 214.345057 
L 193.645714 225.7971 
L 194.934026 232.402692 
L 196.222338 205.284948 
L 197.510649 200.491125 
L 198.798961 232.870011 
L 200.087273 245.669863 
L 201.375584 228.960628 
L 202.663896 216.392127 
L 203.952208 198.753324 
L 205.240519 237.881567 
L 206.528831 208.724225 
L 207.817143 202.090954 
L 209.105455 205.244459 
L 210.393766 200.880308 
L 211.682078 192.612945 
L 212.97039 191.24875 
L 214.258701 195.434915 
L 215.547013 198.773321 
L 216.835325 198.025976 
L 218.123636 180.726073 
L 219.411948 246.691312 
L 220.70026 203.49693 
L 221.988571 231.580175 
L 223.276883 206.041802 
L 224.565195 213.476922 
L 225.853506 212.564073 
L 227.141818 227.655663 
L 228.43013 202.953919 
L 229.718442 259.368623 
L 231.006753 206.070136 
L 232.295065 216.246206 
L 233.583377 244.689234 
L 234.871688 221.016687 
L 236.16 270.895782 
L 237.448312 270.895782 
L 238.736623 221.016687 
L 240.024935 244.689234 
L 241.313247 216.246206 
L 242.601558 206.070136 
L 243.88987 259.368623 
L 245.178182 202.953919 
L 246.466494 227.655663 
L 247.754805 212.564073 
L 249.043117 213.476922 
L 250.331429 206.041802 
L 251.61974 231.580175 
L 252.908052 203.49693 
L 254.196364 246.691312 
L 255.484675 180.726073 
L 256.772987 198.025976 
L 258.061299 198.773321 
L 259.34961 195.434915 
L 260.637922 191.24875 
L 261.926234 192.612945 
L 263.214545 200.880308 
L 264.502857 205.244459 
L 265.791169 202.090954 
L 267.079481 208.724225 
L 268.367792 237.881567 
L 269.656104 198.753324 
L 270.944416 216.392127 
L 272.232727 228.960628 
L 273.521039 245.669863 
L 274.809351 232.870011 
L 276.097662 200.491125 
L 277.385974 205.284948 
L 278.674286 232.402692 
L 279.962597 225.7971 
L 281.250909 214.345057 
L 282.539221 193.256232 
L 283.827532 239.664821 
L 285.115844 234.252918 
L 286.404156 242.758263 
L 287.692468 202.821623 
L 288.980779 204.309692 
L 290.269091 200.565068 
L 291.557403 194.750599 
L 292.845714 223.675997 
L 294.134026 211.787674 
L 295.422338 210.96803 
L 296.710649 202.5119 
L 297.998961 211.101659 
L 299.287273 207.546183 
L 300.575584 233.81913 
L 301.863896 219.295022 
L 303.152208 207.895947 
L 304.440519 200.712332 
L 305.728831 201.600035 
L 307.017143 221.626928 
L 308.305455 210.908652 
L 309.593766 226.640616 
L 310.882078 272.426671 
L 312.17039 221.353206 
L 313.458701 225.133052 
L 314.747013 237.781974 
L 316.035325 195.528525 
L 317.323636 201.430083 
L 318.611948 212.467838 
L 319.90026 219.336478 
L 321.188571 204.962337 
L 322.476883 252.526507 
L 323.765195 213.949289 
L 325.053506 206.106546 
L 326.341818 251.995514 
L 327.63013 205.955654 
L 328.918442 226.384617 
L 330.206753 220.229328 
L 331.495065 199.209837 
L 332.783377 197.458181 
L 334.071688 208.177016 
L 335.36 197.616807 
L 336.648312 213.081983 
L 337.936623 208.459703 
L 339.224935 219.385616 
L 340.513247 218.258429 
L 341.801558 217.679761 
L 343.08987 264.741718 
L 344.378182 219.385423 
L 345.666494 194.680437 
L 346.954805 196.994046 
L 348.243117 210.482609 
L 349.531429 217.318913 
L 350.81974 218.307885 
L 352.108052 192.24414 
L 353.396364 192.528788 
L 354.684675 232.073713 
L 355.972987 177.543049 
L 357.261299 190.208214 
L 358.54961 217.065667 
L 359.837922 196.691241 
L 361.126234 192.719717 
L 362.414545 187.76612 
L 363.702857 170.225414 
L 364.991169 191.459722 
L 366.279481 176.936587 
L 367.567792 190.324546 
L 368.856104 212.668634 
L 370.144416 213.855082 
L 371.432727 193.128288 
L 372.721039 169.528341 
L 374.009351 192.612078 
L 375.297662 178.618846 
L 376.585974 205.321958 
L 377.874286 181.626307 
L 379.162597 163.520329 
L 380.450909 167.175978 
L 381.739221 194.160008 
L 383.027532 188.13409 
L 384.315844 192.641522 
L 385.604156 167.566091 
L 386.892468 170.634291 
L 388.180779 172.454235 
L 389.469091 155.223459 
L 390.757403 161.012835 
L 392.045714 139.775979 
L 393.334026 146.169271 
L 394.622338 138.130456 
L 395.910649 144.322409 
L 397.198961 121.401867 
L 398.487273 105.831695 
L 398.487273 105.831695 
" style="fill:none;stroke:#a6a6a6;stroke-linecap:square;stroke-width:1.5;"/>
   </g>
   <g id="line2d_27">
    <path clip-path="url(#pa8f7e1dfeb)" d="M 73.832727 53.568 
L 75.121039 98.511833 
L 76.409351 139.060994 
L 77.697662 139.149024 
L 78.985974 139.086998 
L 80.274286 152.948988 
L 81.562597 135.498634 
L 82.850909 150.868754 
L 84.139221 169.962104 
L 85.427532 152.826091 
L 86.715844 150.9299 
L 88.004156 164.114345 
L 89.292468 185.507532 
L 90.580779 160.287632 
L 91.869091 183.686527 
L 93.157403 156.143029 
L 94.445714 158.371599 
L 95.734026 168.46409 
L 97.022338 170.46805 
L 98.310649 183.714374 
L 99.598961 168.055851 
L 102.175584 181.960351 
L 103.463896 185.32212 
L 104.752208 176.156276 
L 106.040519 171.814899 
L 107.328831 224.456836 
L 108.617143 175.168414 
L 109.905455 167.72658 
L 111.193766 173.192816 
L 112.482078 189.970684 
L 115.058701 195.244759 
L 116.347013 192.273432 
L 117.635325 172.516168 
L 118.923636 190.108868 
L 120.211948 192.543118 
L 121.50026 178.821915 
L 122.788571 195.096342 
L 124.076883 193.667298 
L 125.365195 188.368741 
L 126.653506 187.885599 
L 127.941818 189.919614 
L 129.23013 200.67921 
L 130.518442 230.957748 
L 133.095065 192.542582 
L 134.383377 197.238605 
L 135.671688 182.940665 
L 136.96 202.122774 
L 138.248312 201.844058 
L 139.536623 189.633341 
L 140.824935 188.423256 
L 142.113247 191.802004 
L 143.401558 197.962939 
L 145.978182 191.438717 
L 147.266494 212.424902 
L 148.554805 192.923723 
L 149.843117 205.483072 
L 151.131429 198.99639 
L 152.41974 189.78779 
L 153.708052 209.730822 
L 154.996364 207.621231 
L 156.284675 199.381361 
L 157.572987 193.276703 
L 158.861299 220.150475 
L 160.14961 197.774785 
L 161.437922 207.073435 
L 162.726234 218.035109 
L 164.014545 218.700537 
L 165.302857 208.330595 
L 166.591169 204.49335 
L 167.879481 192.407863 
L 169.167792 207.908482 
L 170.456104 195.042801 
L 171.744416 199.09021 
L 173.032727 208.180734 
L 174.321039 206.329287 
L 175.609351 194.739257 
L 176.897662 203.823287 
L 178.185974 195.036192 
L 179.474286 209.193722 
L 180.762597 213.533951 
L 182.050909 191.398415 
L 183.339221 199.185767 
L 184.627532 201.062042 
L 185.915844 196.333821 
L 187.204156 221.506125 
L 188.492468 208.427269 
L 189.780779 203.189426 
L 191.069091 189.585442 
L 192.357403 205.350893 
L 193.645714 208.329313 
L 194.934026 200.114912 
L 196.222338 197.490998 
L 197.510649 197.617271 
L 198.798961 200.553731 
L 200.087273 226.191166 
L 201.375584 209.532893 
L 202.663896 200.15427 
L 203.952208 195.829902 
L 205.240519 252.909598 
L 206.528831 206.021357 
L 207.817143 224.718913 
L 209.105455 220.591247 
L 210.393766 198.879068 
L 211.682078 195.219296 
L 212.97039 207.535835 
L 214.258701 225.394585 
L 215.547013 203.897176 
L 216.835325 202.427316 
L 218.123636 182.293806 
L 219.411948 219.02706 
L 220.70026 219.069654 
L 221.988571 224.180191 
L 223.276883 207.947184 
L 224.565195 204.041264 
L 225.853506 213.984592 
L 227.141818 204.341603 
L 228.43013 210.030891 
L 229.718442 209.827343 
L 231.006753 195.050102 
L 232.295065 215.925439 
L 233.583377 206.53117 
L 234.871688 207.767467 
L 236.16 228.336294 
L 237.448312 228.336294 
L 238.736623 207.767467 
L 240.024935 206.53117 
L 241.313247 215.925439 
L 242.601558 195.050102 
L 243.88987 209.827343 
L 245.178182 210.030891 
L 246.466494 204.341603 
L 247.754805 213.984592 
L 249.043117 204.041264 
L 250.331429 207.947184 
L 251.61974 224.180191 
L 252.908052 219.069654 
L 254.196364 219.02706 
L 255.484675 182.293806 
L 256.772987 202.427316 
L 258.061299 203.897176 
L 259.34961 225.394585 
L 260.637922 207.535835 
L 261.926234 195.219296 
L 263.214545 198.879068 
L 264.502857 220.591247 
L 265.791169 224.718913 
L 267.079481 206.021357 
L 268.367792 252.909598 
L 269.656104 195.829902 
L 270.944416 200.15427 
L 272.232727 209.532893 
L 273.521039 226.191166 
L 274.809351 200.553731 
L 276.097662 197.617271 
L 277.385974 197.490998 
L 278.674286 200.114912 
L 279.962597 208.329313 
L 281.250909 205.350893 
L 282.539221 189.585442 
L 283.827532 203.189426 
L 285.115844 208.427269 
L 286.404156 221.506125 
L 287.692468 196.333821 
L 288.980779 201.062042 
L 290.269091 199.185767 
L 291.557403 191.398415 
L 292.845714 213.533951 
L 294.134026 209.193722 
L 295.422338 195.036192 
L 296.710649 203.823287 
L 297.998961 194.739257 
L 299.287273 206.329287 
L 300.575584 208.180734 
L 301.863896 199.09021 
L 303.152208 195.042801 
L 304.440519 207.908482 
L 305.728831 192.407863 
L 307.017143 204.49335 
L 308.305455 208.330595 
L 309.593766 218.700537 
L 310.882078 218.035109 
L 312.17039 207.073435 
L 313.458701 197.774785 
L 314.747013 220.150475 
L 316.035325 193.276703 
L 317.323636 199.381361 
L 318.611948 207.621231 
L 319.90026 209.730822 
L 321.188571 189.78779 
L 322.476883 198.99639 
L 323.765195 205.483072 
L 325.053506 192.923723 
L 326.341818 212.424902 
L 327.63013 191.438717 
L 330.206753 197.962939 
L 331.495065 191.802004 
L 332.783377 188.423256 
L 334.071688 189.633341 
L 335.36 201.844058 
L 336.648312 202.122774 
L 337.936623 182.940665 
L 339.224935 197.238605 
L 340.513247 192.542582 
L 343.08987 230.957748 
L 344.378182 200.67921 
L 345.666494 189.919614 
L 346.954805 187.885599 
L 348.243117 188.368741 
L 349.531429 193.667298 
L 350.81974 195.096342 
L 352.108052 178.821915 
L 353.396364 192.543118 
L 354.684675 190.108868 
L 355.972987 172.516168 
L 357.261299 192.273432 
L 358.54961 195.244759 
L 361.126234 189.970684 
L 362.414545 173.192816 
L 363.702857 167.72658 
L 364.991169 175.168414 
L 366.279481 224.456836 
L 367.567792 171.814899 
L 368.856104 176.156276 
L 370.144416 185.32212 
L 371.432727 181.960351 
L 374.009351 168.055851 
L 375.297662 183.714374 
L 376.585974 170.46805 
L 377.874286 168.46409 
L 379.162597 158.371599 
L 380.450909 156.143029 
L 381.739221 183.686527 
L 383.027532 160.287632 
L 384.315844 185.507532 
L 385.604156 164.114345 
L 386.892468 150.9299 
L 388.180779 152.826091 
L 389.469091 169.962104 
L 390.757403 150.868754 
L 392.045714 135.498634 
L 393.334026 152.948988 
L 394.622338 139.086998 
L 395.910649 139.149024 
L 397.198961 139.060994 
L 398.487273 98.511833 
L 398.487273 98.511833 
" style="fill:none;stroke:#737373;stroke-linecap:square;stroke-width:1.5;"/>
   </g>
   <g id="line2d_28">
    <path clip-path="url(#pa8f7e1dfeb)" d="M 73.832727 53.568 
L 76.409351 107.173722 
L 77.697662 106.549162 
L 78.985974 108.640618 
L 80.274286 108.26461 
L 81.562597 114.835263 
L 82.850909 118.575555 
L 84.139221 151.888749 
L 85.427532 127.297697 
L 86.715844 140.290805 
L 88.004156 135.056524 
L 89.292468 135.018939 
L 90.580779 138.432412 
L 91.869091 143.751759 
L 93.157403 133.00804 
L 94.445714 144.440774 
L 95.734026 150.863331 
L 97.022338 151.413515 
L 98.310649 148.547219 
L 99.598961 150.259663 
L 100.887273 137.661757 
L 102.175584 145.119478 
L 103.463896 167.805365 
L 104.752208 152.576845 
L 106.040519 147.162496 
L 107.328831 192.535005 
L 108.617143 154.041872 
L 109.905455 148.338595 
L 111.193766 155.603159 
L 112.482078 155.613208 
L 113.77039 154.651261 
L 115.058701 160.751836 
L 116.347013 153.843321 
L 117.635325 150.033819 
L 118.923636 157.155597 
L 120.211948 156.733887 
L 121.50026 161.363524 
L 122.788571 167.370632 
L 124.076883 169.307504 
L 125.365195 159.759879 
L 126.653506 166.661891 
L 127.941818 168.761369 
L 129.23013 161.494872 
L 130.518442 164.397865 
L 131.806753 158.886599 
L 133.095065 164.502961 
L 134.383377 159.425833 
L 136.96 176.142192 
L 138.248312 177.054741 
L 139.536623 169.725904 
L 140.824935 171.687838 
L 142.113247 163.763433 
L 143.401558 167.14412 
L 144.68987 171.160393 
L 145.978182 180.046061 
L 147.266494 169.621301 
L 148.554805 175.205689 
L 149.843117 181.881465 
L 151.131429 169.576913 
L 152.41974 161.256858 
L 153.708052 168.100866 
L 154.996364 168.36651 
L 157.572987 160.695016 
L 158.861299 174.58848 
L 160.14961 172.42159 
L 161.437922 168.608316 
L 162.726234 169.035956 
L 164.014545 177.99016 
L 165.302857 176.659329 
L 166.591169 168.498701 
L 167.879481 170.684931 
L 169.167792 187.319975 
L 170.456104 164.818247 
L 171.744416 175.568124 
L 173.032727 180.484382 
L 174.321039 168.070873 
L 175.609351 177.557177 
L 176.897662 179.107456 
L 178.185974 173.147796 
L 179.474286 184.37451 
L 180.762597 185.467166 
L 182.050909 174.093289 
L 183.339221 180.872701 
L 184.627532 181.732261 
L 185.915844 176.993034 
L 187.204156 168.543491 
L 188.492468 177.487507 
L 189.780779 170.67611 
L 191.069091 173.398776 
L 192.357403 178.170995 
L 193.645714 174.109915 
L 194.934026 174.55422 
L 196.222338 174.822769 
L 197.510649 178.294575 
L 198.798961 168.644612 
L 200.087273 186.542189 
L 201.375584 176.840926 
L 202.663896 177.645392 
L 203.952208 174.237222 
L 205.240519 191.115036 
L 206.528831 185.737572 
L 207.817143 183.439958 
L 209.105455 191.968461 
L 210.393766 178.088967 
L 211.682078 173.168084 
L 212.97039 176.998602 
L 214.258701 176.812821 
L 215.547013 177.809727 
L 216.835325 181.054547 
L 218.123636 173.852064 
L 219.411948 172.975882 
L 220.70026 199.502645 
L 221.988571 195.303279 
L 223.276883 179.664051 
L 224.565195 188.479773 
L 225.853506 184.319849 
L 227.141818 172.584507 
L 228.43013 184.544279 
L 229.718442 178.862556 
L 231.006753 172.436877 
L 232.295065 183.462517 
L 233.583377 180.859719 
L 234.871688 172.056507 
L 236.16 182.63247 
L 237.448312 182.63247 
L 238.736623 172.056507 
L 240.024935 180.859719 
L 241.313247 183.462517 
L 242.601558 172.436877 
L 243.88987 178.862556 
L 245.178182 184.544279 
L 246.466494 172.584507 
L 247.754805 184.319849 
L 249.043117 188.479773 
L 250.331429 179.664051 
L 251.61974 195.303279 
L 252.908052 199.502645 
L 254.196364 172.975882 
L 255.484675 173.852064 
L 256.772987 181.054547 
L 258.061299 177.809727 
L 259.34961 176.812821 
L 260.637922 176.998602 
L 261.926234 173.168084 
L 263.214545 178.088967 
L 264.502857 191.968461 
L 265.791169 183.439958 
L 267.079481 185.737572 
L 268.367792 191.115036 
L 269.656104 174.237222 
L 270.944416 177.645392 
L 272.232727 176.840926 
L 273.521039 186.542189 
L 274.809351 168.644612 
L 276.097662 178.294575 
L 277.385974 174.822769 
L 278.674286 174.55422 
L 279.962597 174.109915 
L 281.250909 178.170995 
L 282.539221 173.398776 
L 283.827532 170.67611 
L 285.115844 177.487507 
L 286.404156 168.543491 
L 287.692468 176.993034 
L 288.980779 181.732261 
L 290.269091 180.872701 
L 291.557403 174.093289 
L 292.845714 185.467166 
L 294.134026 184.37451 
L 295.422338 173.147796 
L 296.710649 179.107456 
L 297.998961 177.557177 
L 299.287273 168.070873 
L 300.575584 180.484382 
L 301.863896 175.568124 
L 303.152208 164.818247 
L 304.440519 187.319975 
L 305.728831 170.684931 
L 307.017143 168.498701 
L 308.305455 176.659329 
L 309.593766 177.99016 
L 310.882078 169.035956 
L 312.17039 168.608316 
L 313.458701 172.42159 
L 314.747013 174.58848 
L 316.035325 160.695016 
L 318.611948 168.36651 
L 319.90026 168.100866 
L 321.188571 161.256858 
L 322.476883 169.576913 
L 323.765195 181.881465 
L 325.053506 175.205689 
L 326.341818 169.621301 
L 327.63013 180.046061 
L 328.918442 171.160393 
L 330.206753 167.14412 
L 331.495065 163.763433 
L 332.783377 171.687838 
L 334.071688 169.725904 
L 335.36 177.054741 
L 336.648312 176.142192 
L 339.224935 159.425833 
L 340.513247 164.502961 
L 341.801558 158.886599 
L 343.08987 164.397865 
L 344.378182 161.494872 
L 345.666494 168.761369 
L 346.954805 166.661891 
L 348.243117 159.759879 
L 349.531429 169.307504 
L 350.81974 167.370632 
L 352.108052 161.363524 
L 353.396364 156.733887 
L 354.684675 157.155597 
L 355.972987 150.033819 
L 357.261299 153.843321 
L 358.54961 160.751836 
L 359.837922 154.651261 
L 361.126234 155.613208 
L 362.414545 155.603159 
L 363.702857 148.338595 
L 364.991169 154.041872 
L 366.279481 192.535005 
L 367.567792 147.162496 
L 368.856104 152.576845 
L 370.144416 167.805365 
L 371.432727 145.119478 
L 372.721039 137.661757 
L 374.009351 150.259663 
L 375.297662 148.547219 
L 376.585974 151.413515 
L 377.874286 150.863331 
L 379.162597 144.440774 
L 380.450909 133.00804 
L 381.739221 143.751759 
L 383.027532 138.432412 
L 384.315844 135.018939 
L 385.604156 135.056524 
L 386.892468 140.290805 
L 388.180779 127.297697 
L 389.469091 151.888749 
L 390.757403 118.575555 
L 392.045714 114.835263 
L 393.334026 108.26461 
L 394.622338 108.640618 
L 395.910649 106.549162 
L 397.198961 107.173722 
L 398.487273 79.596327 
L 398.487273 79.596327 
" style="fill:none;stroke:#404040;stroke-linecap:square;stroke-width:1.5;"/>
   </g>
   <g id="line2d_29">
    <path clip-path="url(#pa8f7e1dfeb)" d="M 73.832727 53.568 
L 75.121039 124.086782 
L 76.409351 139.199257 
L 77.697662 147.042538 
L 78.985974 150.183547 
L 81.562597 166.833548 
L 82.850909 156.261468 
L 84.139221 160.911672 
L 85.427532 221.346191 
L 86.715844 173.784065 
L 88.004156 181.079142 
L 89.292468 179.213349 
L 90.580779 175.320325 
L 91.869091 192.293511 
L 93.157403 201.09346 
L 94.445714 182.302442 
L 95.734026 215.229504 
L 97.022338 216.80139 
L 98.310649 192.632001 
L 99.598961 210.565 
L 100.887273 184.860142 
L 103.463896 223.050733 
L 104.752208 226.938215 
L 106.040519 229.963374 
L 107.328831 188.402534 
L 108.617143 197.121875 
L 109.905455 187.125079 
L 111.193766 225.73508 
L 112.482078 191.323602 
L 113.77039 198.771264 
L 115.058701 198.724709 
L 116.347013 190.020501 
L 117.635325 195.375575 
L 118.923636 198.170934 
L 121.50026 210.375176 
L 122.788571 221.849271 
L 124.076883 254.31614 
L 125.365195 211.498752 
L 126.653506 207.815959 
L 127.941818 208.099857 
L 129.23013 220.038807 
L 130.518442 239.034847 
L 131.806753 212.550354 
L 133.095065 198.684565 
L 134.383377 217.502994 
L 135.671688 210.146336 
L 136.96 196.599526 
L 138.248312 249.78412 
L 139.536623 224.2652 
L 140.824935 211.401035 
L 142.113247 208.993679 
L 143.401558 212.899494 
L 144.68987 207.270913 
L 145.978182 222.352967 
L 147.266494 216.443802 
L 148.554805 230.78769 
L 149.843117 232.444048 
L 151.131429 223.162264 
L 152.41974 221.787594 
L 153.708052 235.856149 
L 154.996364 236.748409 
L 156.284675 260.884405 
L 157.572987 209.966237 
L 158.861299 280.583925 
L 160.14961 247.93408 
L 161.437922 228.024311 
L 162.726234 250.523911 
L 164.014545 264.882407 
L 165.302857 230.354229 
L 166.591169 228.590462 
L 167.879481 217.546104 
L 169.167792 213.836579 
L 170.456104 239.856815 
L 171.744416 226.290005 
L 173.032727 224.971809 
L 174.321039 253.511896 
L 175.609351 275.704744 
L 176.897662 250.899306 
L 178.185974 269.259828 
L 179.474286 218.346938 
L 180.762597 219.772889 
L 182.050909 211.866801 
L 183.339221 215.613307 
L 184.627532 217.611588 
L 185.915844 233.102882 
L 187.204156 280.825297 
L 188.492468 235.163273 
L 189.780779 235.454444 
L 191.069091 213.25631 
L 192.357403 236.765867 
L 193.645714 226.577785 
L 194.934026 233.850734 
L 196.222338 214.339837 
L 197.510649 216.811619 
L 198.798961 218.86314 
L 200.087273 229.797864 
L 201.375584 221.159763 
L 202.663896 214.81529 
L 203.952208 221.050616 
L 205.240519 242.892131 
L 206.528831 257.100208 
L 207.817143 209.00712 
L 209.105455 218.691431 
L 210.393766 231.25763 
L 211.682078 209.655644 
L 212.97039 206.452455 
L 214.258701 210.820412 
L 215.547013 212.039719 
L 216.835325 223.904733 
L 218.123636 203.241104 
L 219.411948 229.537581 
L 220.70026 219.704348 
L 221.988571 226.034516 
L 223.276883 212.538147 
L 224.565195 232.37019 
L 225.853506 219.085391 
L 227.141818 288.694415 
L 228.43013 217.175465 
L 229.718442 256.878981 
L 231.006753 221.464001 
L 232.295065 247.786478 
L 233.583377 249.89773 
L 234.871688 252.763524 
L 236.16 247.551285 
L 237.448312 247.551285 
L 238.736623 252.763524 
L 240.024935 249.89773 
L 241.313247 247.786478 
L 242.601558 221.464001 
L 243.88987 256.878981 
L 245.178182 217.175465 
L 246.466494 288.694415 
L 247.754805 219.085391 
L 249.043117 232.37019 
L 250.331429 212.538147 
L 251.61974 226.034516 
L 252.908052 219.704348 
L 254.196364 229.537581 
L 255.484675 203.241104 
L 256.772987 223.904733 
L 258.061299 212.039719 
L 259.34961 210.820412 
L 260.637922 206.452455 
L 261.926234 209.655644 
L 263.214545 231.25763 
L 264.502857 218.691431 
L 265.791169 209.00712 
L 267.079481 257.100208 
L 268.367792 242.892131 
L 269.656104 221.050616 
L 270.944416 214.81529 
L 272.232727 221.159763 
L 273.521039 229.797864 
L 274.809351 218.86314 
L 276.097662 216.811619 
L 277.385974 214.339837 
L 278.674286 233.850734 
L 279.962597 226.577785 
L 281.250909 236.765867 
L 282.539221 213.25631 
L 283.827532 235.454444 
L 285.115844 235.163273 
L 286.404156 280.825297 
L 287.692468 233.102882 
L 288.980779 217.611588 
L 290.269091 215.613307 
L 291.557403 211.866801 
L 292.845714 219.772889 
L 294.134026 218.346938 
L 295.422338 269.259828 
L 296.710649 250.899306 
L 297.998961 275.704744 
L 299.287273 253.511896 
L 300.575584 224.971809 
L 301.863896 226.290005 
L 303.152208 239.856815 
L 304.440519 213.836579 
L 305.728831 217.546104 
L 307.017143 228.590462 
L 308.305455 230.354229 
L 309.593766 264.882407 
L 310.882078 250.523911 
L 312.17039 228.024311 
L 313.458701 247.93408 
L 314.747013 280.583925 
L 316.035325 209.966237 
L 317.323636 260.884405 
L 318.611948 236.748409 
L 319.90026 235.856149 
L 321.188571 221.787594 
L 322.476883 223.162264 
L 323.765195 232.444048 
L 325.053506 230.78769 
L 326.341818 216.443802 
L 327.63013 222.352967 
L 328.918442 207.270913 
L 330.206753 212.899494 
L 331.495065 208.993679 
L 332.783377 211.401035 
L 334.071688 224.2652 
L 335.36 249.78412 
L 336.648312 196.599526 
L 337.936623 210.146336 
L 339.224935 217.502994 
L 340.513247 198.684565 
L 341.801558 212.550354 
L 343.08987 239.034847 
L 344.378182 220.038807 
L 345.666494 208.099857 
L 346.954805 207.815959 
L 348.243117 211.498752 
L 349.531429 254.31614 
L 350.81974 221.849271 
L 352.108052 210.375176 
L 354.684675 198.170934 
L 355.972987 195.375575 
L 357.261299 190.020501 
L 358.54961 198.724709 
L 359.837922 198.771264 
L 361.126234 191.323602 
L 362.414545 225.73508 
L 363.702857 187.125079 
L 364.991169 197.121875 
L 366.279481 188.402534 
L 367.567792 229.963374 
L 368.856104 226.938215 
L 370.144416 223.050733 
L 372.721039 184.860142 
L 374.009351 210.565 
L 375.297662 192.632001 
L 376.585974 216.80139 
L 377.874286 215.229504 
L 379.162597 182.302442 
L 380.450909 201.09346 
L 381.739221 192.293511 
L 383.027532 175.320325 
L 384.315844 179.213349 
L 385.604156 181.079142 
L 386.892468 173.784065 
L 388.180779 221.346191 
L 389.469091 160.911672 
L 390.757403 156.261468 
L 392.045714 166.833548 
L 394.622338 150.183547 
L 395.910649 147.042538 
L 397.198961 139.199257 
L 398.487273 124.086782 
L 398.487273 124.086782 
" style="fill:none;stroke:#40ff00;stroke-linecap:square;stroke-width:1.5;"/>
   </g>
   <g id="patch_3">
    <path d="M 57.6 307.584 
L 57.6 41.472 
" style="fill:none;stroke:#000000;stroke-linecap:square;stroke-linejoin:miter;stroke-width:0.8;"/>
   </g>
   <g id="patch_4">
    <path d="M 414.72 307.584 
L 414.72 41.472 
" style="fill:none;stroke:#000000;stroke-linecap:square;stroke-linejoin:miter;stroke-width:0.8;"/>
   </g>
   <g id="patch_5">
    <path d="M 57.6 307.584 
L 414.72 307.584 
" style="fill:none;stroke:#000000;stroke-linecap:square;stroke-linejoin:miter;stroke-width:0.8;"/>
   </g>
   <g id="patch_6">
    <path d="M 57.6 41.472 
L 414.72 41.472 
" style="fill:none;stroke:#000000;stroke-linecap:square;stroke-linejoin:miter;stroke-width:0.8;"/>
   </g>
   <g id="text_15">
    <!-- Fourier Analysis -->
    <g transform="translate(181.644375 35.472)scale(0.12 -0.12)">
     <defs>
      <path d="M 9.1875 72.90625 
L 59.90625 72.90625 
L 59.90625 58.6875 
L 27.984375 58.6875 
L 27.984375 45.125 
L 58.015625 45.125 
L 58.015625 30.90625 
L 27.984375 30.90625 
L 27.984375 0 
L 9.1875 0 
z
" id="DejaVuSans-Bold-70"/>
      <path d="M 34.421875 43.5 
Q 28.609375 43.5 25.5625 39.328125 
Q 22.515625 35.15625 22.515625 27.296875 
Q 22.515625 19.4375 25.5625 15.25 
Q 28.609375 11.078125 34.421875 11.078125 
Q 40.140625 11.078125 43.15625 15.25 
Q 46.1875 19.4375 46.1875 27.296875 
Q 46.1875 35.15625 43.15625 39.328125 
Q 40.140625 43.5 34.421875 43.5 
z
M 34.421875 56 
Q 48.53125 56 56.46875 48.375 
Q 64.40625 40.765625 64.40625 27.296875 
Q 64.40625 13.8125 56.46875 6.1875 
Q 48.53125 -1.421875 34.421875 -1.421875 
Q 20.265625 -1.421875 12.28125 6.1875 
Q 4.296875 13.8125 4.296875 27.296875 
Q 4.296875 40.765625 12.28125 48.375 
Q 20.265625 56 34.421875 56 
z
" id="DejaVuSans-Bold-111"/>
      <path d="M 7.8125 21.296875 
L 7.8125 54.6875 
L 25.390625 54.6875 
L 25.390625 49.21875 
Q 25.390625 44.78125 25.34375 38.0625 
Q 25.296875 31.34375 25.296875 29.109375 
Q 25.296875 22.515625 25.640625 19.609375 
Q 25.984375 16.703125 26.8125 15.375 
Q 27.875 13.671875 29.609375 12.734375 
Q 31.34375 11.8125 33.59375 11.8125 
Q 39.0625 11.8125 42.1875 16.015625 
Q 45.3125 20.21875 45.3125 27.6875 
L 45.3125 54.6875 
L 62.796875 54.6875 
L 62.796875 0 
L 45.3125 0 
L 45.3125 7.90625 
Q 41.359375 3.125 36.9375 0.84375 
Q 32.515625 -1.421875 27.203125 -1.421875 
Q 17.71875 -1.421875 12.765625 4.390625 
Q 7.8125 10.203125 7.8125 21.296875 
z
" id="DejaVuSans-Bold-117"/>
      <path d="M 49.03125 39.796875 
Q 46.734375 40.875 44.453125 41.375 
Q 42.1875 41.890625 39.890625 41.890625 
Q 33.15625 41.890625 29.515625 37.5625 
Q 25.875 33.25 25.875 25.203125 
L 25.875 0 
L 8.40625 0 
L 8.40625 54.6875 
L 25.875 54.6875 
L 25.875 45.703125 
Q 29.25 51.078125 33.609375 53.53125 
Q 37.984375 56 44.09375 56 
Q 44.96875 56 45.984375 55.921875 
Q 47.015625 55.859375 48.96875 55.609375 
z
" id="DejaVuSans-Bold-114"/>
      <path d="M 8.40625 54.6875 
L 25.875 54.6875 
L 25.875 0 
L 8.40625 0 
z
M 8.40625 75.984375 
L 25.875 75.984375 
L 25.875 61.71875 
L 8.40625 61.71875 
z
" id="DejaVuSans-Bold-105"/>
      <path d="M 62.984375 27.484375 
L 62.984375 22.515625 
L 22.125 22.515625 
Q 22.75 16.359375 26.5625 13.28125 
Q 30.375 10.203125 37.203125 10.203125 
Q 42.71875 10.203125 48.5 11.84375 
Q 54.296875 13.484375 60.40625 16.796875 
L 60.40625 3.328125 
Q 54.203125 0.984375 48 -0.21875 
Q 41.796875 -1.421875 35.59375 -1.421875 
Q 20.75 -1.421875 12.515625 6.125 
Q 4.296875 13.671875 4.296875 27.296875 
Q 4.296875 40.671875 12.375 48.328125 
Q 20.453125 56 34.625 56 
Q 47.515625 56 55.25 48.234375 
Q 62.984375 40.484375 62.984375 27.484375 
z
M 45.015625 33.296875 
Q 45.015625 38.28125 42.109375 41.328125 
Q 39.203125 44.390625 34.515625 44.390625 
Q 29.4375 44.390625 26.265625 41.53125 
Q 23.09375 38.671875 22.3125 33.296875 
z
" id="DejaVuSans-Bold-101"/>
      <path id="DejaVuSans-Bold-32"/>
      <path d="M 53.421875 13.28125 
L 24.03125 13.28125 
L 19.390625 0 
L 0.484375 0 
L 27.484375 72.90625 
L 49.90625 72.90625 
L 76.90625 0 
L 58.015625 0 
z
M 28.71875 26.8125 
L 48.6875 26.8125 
L 38.71875 55.8125 
z
" id="DejaVuSans-Bold-65"/>
      <path d="M 63.375 33.296875 
L 63.375 0 
L 45.796875 0 
L 45.796875 5.421875 
L 45.796875 25.484375 
Q 45.796875 32.5625 45.484375 35.25 
Q 45.171875 37.9375 44.390625 39.203125 
Q 43.359375 40.921875 41.59375 41.875 
Q 39.84375 42.828125 37.59375 42.828125 
Q 32.125 42.828125 29 38.59375 
Q 25.875 34.375 25.875 26.90625 
L 25.875 0 
L 8.40625 0 
L 8.40625 54.6875 
L 25.875 54.6875 
L 25.875 46.6875 
Q 29.828125 51.46875 34.265625 53.734375 
Q 38.71875 56 44.09375 56 
Q 53.5625 56 58.46875 50.1875 
Q 63.375 44.390625 63.375 33.296875 
z
" id="DejaVuSans-Bold-110"/>
      <path d="M 32.90625 24.609375 
Q 27.4375 24.609375 24.671875 22.75 
Q 21.921875 20.90625 21.921875 17.28125 
Q 21.921875 13.96875 24.140625 12.078125 
Q 26.375 10.203125 30.328125 10.203125 
Q 35.25 10.203125 38.625 13.734375 
Q 42 17.28125 42 22.609375 
L 42 24.609375 
z
M 59.625 31.203125 
L 59.625 0 
L 42 0 
L 42 8.109375 
Q 38.484375 3.125 34.078125 0.84375 
Q 29.6875 -1.421875 23.390625 -1.421875 
Q 14.890625 -1.421875 9.59375 3.53125 
Q 4.296875 8.5 4.296875 16.40625 
Q 4.296875 26.03125 10.90625 30.515625 
Q 17.53125 35.015625 31.6875 35.015625 
L 42 35.015625 
L 42 36.375 
Q 42 40.53125 38.71875 42.453125 
Q 35.453125 44.390625 28.515625 44.390625 
Q 22.90625 44.390625 18.0625 43.265625 
Q 13.234375 42.140625 9.078125 39.890625 
L 9.078125 53.21875 
Q 14.703125 54.59375 20.359375 55.296875 
Q 26.03125 56 31.6875 56 
Q 46.484375 56 53.046875 50.171875 
Q 59.625 44.34375 59.625 31.203125 
z
" id="DejaVuSans-Bold-97"/>
      <path d="M 8.40625 75.984375 
L 25.875 75.984375 
L 25.875 0 
L 8.40625 0 
z
" id="DejaVuSans-Bold-108"/>
      <path d="M 1.21875 54.6875 
L 18.703125 54.6875 
L 33.40625 17.578125 
L 45.90625 54.6875 
L 63.375 54.6875 
L 40.375 -5.171875 
Q 36.921875 -14.3125 32.296875 -17.9375 
Q 27.6875 -21.578125 20.125 -21.578125 
L 10.015625 -21.578125 
L 10.015625 -10.109375 
L 15.484375 -10.109375 
Q 19.921875 -10.109375 21.9375 -8.6875 
Q 23.96875 -7.28125 25.09375 -3.609375 
L 25.59375 -2.09375 
z
" id="DejaVuSans-Bold-121"/>
      <path d="M 51.125 52.984375 
L 51.125 39.703125 
Q 45.515625 42.046875 40.28125 43.21875 
Q 35.0625 44.390625 30.421875 44.390625 
Q 25.4375 44.390625 23.015625 43.140625 
Q 20.609375 41.890625 20.609375 39.3125 
Q 20.609375 37.203125 22.4375 36.078125 
Q 24.265625 34.96875 29 34.421875 
L 32.078125 33.984375 
Q 45.515625 32.28125 50.140625 28.375 
Q 54.78125 24.46875 54.78125 16.109375 
Q 54.78125 7.375 48.328125 2.96875 
Q 41.890625 -1.421875 29.109375 -1.421875 
Q 23.6875 -1.421875 17.890625 -0.5625 
Q 12.109375 0.296875 6 2 
L 6 15.28125 
Q 11.234375 12.75 16.71875 11.46875 
Q 22.21875 10.203125 27.875 10.203125 
Q 33.015625 10.203125 35.59375 11.609375 
Q 38.1875 13.03125 38.1875 15.828125 
Q 38.1875 18.171875 36.40625 19.3125 
Q 34.625 20.453125 29.296875 21.09375 
L 26.21875 21.484375 
Q 14.546875 22.953125 9.859375 26.90625 
Q 5.171875 30.859375 5.171875 38.921875 
Q 5.171875 47.609375 11.125 51.796875 
Q 17.09375 56 29.390625 56 
Q 34.234375 56 39.546875 55.265625 
Q 44.875 54.546875 51.125 52.984375 
z
" id="DejaVuSans-Bold-115"/>
     </defs>
     <use xlink:href="#DejaVuSans-Bold-70"/>
     <use x="64.310547" xlink:href="#DejaVuSans-Bold-111"/>
     <use x="133.011719" xlink:href="#DejaVuSans-Bold-117"/>
     <use x="204.203125" xlink:href="#DejaVuSans-Bold-114"/>
     <use x="253.519531" xlink:href="#DejaVuSans-Bold-105"/>
     <use x="287.796875" xlink:href="#DejaVuSans-Bold-101"/>
     <use x="355.619141" xlink:href="#DejaVuSans-Bold-114"/>
     <use x="404.935547" xlink:href="#DejaVuSans-Bold-32"/>
     <use x="439.75" xlink:href="#DejaVuSans-Bold-65"/>
     <use x="517.142578" xlink:href="#DejaVuSans-Bold-110"/>
     <use x="588.333984" xlink:href="#DejaVuSans-Bold-97"/>
     <use x="655.814453" xlink:href="#DejaVuSans-Bold-108"/>
     <use x="690.091797" xlink:href="#DejaVuSans-Bold-121"/>
     <use x="755.277344" xlink:href="#DejaVuSans-Bold-115"/>
     <use x="814.798828" xlink:href="#DejaVuSans-Bold-105"/>
     <use x="849.076172" xlink:href="#DejaVuSans-Bold-115"/>
    </g>
   </g>
   <g id="legend_1">
    <g id="patch_7">
     <path d="M 197.074062 122.862625 
L 275.245937 122.862625 
Q 277.245937 122.862625 277.245937 120.862625 
L 277.245937 48.472 
Q 277.245937 46.472 275.245937 46.472 
L 197.074062 46.472 
Q 195.074062 46.472 195.074062 48.472 
L 195.074062 120.862625 
Q 195.074062 122.862625 197.074062 122.862625 
z
" style="opacity:0.8;stroke:#cccccc;stroke-linejoin:miter;"/>
    </g>
    <g id="line2d_30">
     <path d="M 199.074062 54.570438 
L 219.074062 54.570438 
" style="fill:none;stroke:#d9d9d9;stroke-linecap:square;stroke-width:1.5;"/>
    </g>
    <g id="line2d_31"/>
    <g id="text_16">
     <!-- FFT VOO -->
     <g style="fill:#ffffff;" transform="translate(227.074062 58.070438)scale(0.1 -0.1)">
      <defs>
       <path d="M 9.8125 72.90625 
L 51.703125 72.90625 
L 51.703125 64.59375 
L 19.671875 64.59375 
L 19.671875 43.109375 
L 48.578125 43.109375 
L 48.578125 34.8125 
L 19.671875 34.8125 
L 19.671875 0 
L 9.8125 0 
z
" id="DejaVuSans-70"/>
       <path d="M -0.296875 72.90625 
L 61.375 72.90625 
L 61.375 64.59375 
L 35.5 64.59375 
L 35.5 0 
L 25.59375 0 
L 25.59375 64.59375 
L -0.296875 64.59375 
z
" id="DejaVuSans-84"/>
       <path id="DejaVuSans-32"/>
       <path d="M 28.609375 0 
L 0.78125 72.90625 
L 11.078125 72.90625 
L 34.1875 11.53125 
L 57.328125 72.90625 
L 67.578125 72.90625 
L 39.796875 0 
z
" id="DejaVuSans-86"/>
       <path d="M 39.40625 66.21875 
Q 28.65625 66.21875 22.328125 58.203125 
Q 16.015625 50.203125 16.015625 36.375 
Q 16.015625 22.609375 22.328125 14.59375 
Q 28.65625 6.59375 39.40625 6.59375 
Q 50.140625 6.59375 56.421875 14.59375 
Q 62.703125 22.609375 62.703125 36.375 
Q 62.703125 50.203125 56.421875 58.203125 
Q 50.140625 66.21875 39.40625 66.21875 
z
M 39.40625 74.21875 
Q 54.734375 74.21875 63.90625 63.9375 
Q 73.09375 53.65625 73.09375 36.375 
Q 73.09375 19.140625 63.90625 8.859375 
Q 54.734375 -1.421875 39.40625 -1.421875 
Q 24.03125 -1.421875 14.8125 8.828125 
Q 5.609375 19.09375 5.609375 36.375 
Q 5.609375 53.65625 14.8125 63.9375 
Q 24.03125 74.21875 39.40625 74.21875 
z
" id="DejaVuSans-79"/>
      </defs>
      <use xlink:href="#DejaVuSans-70"/>
      <use x="57.519531" xlink:href="#DejaVuSans-70"/>
      <use x="113.289062" xlink:href="#DejaVuSans-84"/>
      <use x="174.373047" xlink:href="#DejaVuSans-32"/>
      <use x="206.160156" xlink:href="#DejaVuSans-86"/>
      <use x="272.818359" xlink:href="#DejaVuSans-79"/>
      <use x="351.529297" xlink:href="#DejaVuSans-79"/>
     </g>
    </g>
    <g id="line2d_32">
     <path d="M 199.074062 69.248563 
L 219.074062 69.248563 
" style="fill:none;stroke:#a6a6a6;stroke-linecap:square;stroke-width:1.5;"/>
    </g>
    <g id="line2d_33"/>
    <g id="text_17">
     <!-- FFT SSO -->
     <g style="fill:#ffffff;" transform="translate(227.074062 72.748563)scale(0.1 -0.1)">
      <defs>
       <path d="M 53.515625 70.515625 
L 53.515625 60.890625 
Q 47.90625 63.578125 42.921875 64.890625 
Q 37.9375 66.21875 33.296875 66.21875 
Q 25.25 66.21875 20.875 63.09375 
Q 16.5 59.96875 16.5 54.203125 
Q 16.5 49.359375 19.40625 46.890625 
Q 22.3125 44.4375 30.421875 42.921875 
L 36.375 41.703125 
Q 47.40625 39.59375 52.65625 34.296875 
Q 57.90625 29 57.90625 20.125 
Q 57.90625 9.515625 50.796875 4.046875 
Q 43.703125 -1.421875 29.984375 -1.421875 
Q 24.8125 -1.421875 18.96875 -0.25 
Q 13.140625 0.921875 6.890625 3.21875 
L 6.890625 13.375 
Q 12.890625 10.015625 18.65625 8.296875 
Q 24.421875 6.59375 29.984375 6.59375 
Q 38.421875 6.59375 43.015625 9.90625 
Q 47.609375 13.234375 47.609375 19.390625 
Q 47.609375 24.75 44.3125 27.78125 
Q 41.015625 30.8125 33.5 32.328125 
L 27.484375 33.5 
Q 16.453125 35.6875 11.515625 40.375 
Q 6.59375 45.0625 6.59375 53.421875 
Q 6.59375 63.09375 13.40625 68.65625 
Q 20.21875 74.21875 32.171875 74.21875 
Q 37.3125 74.21875 42.625 73.28125 
Q 47.953125 72.359375 53.515625 70.515625 
z
" id="DejaVuSans-83"/>
      </defs>
      <use xlink:href="#DejaVuSans-70"/>
      <use x="57.519531" xlink:href="#DejaVuSans-70"/>
      <use x="113.289062" xlink:href="#DejaVuSans-84"/>
      <use x="174.373047" xlink:href="#DejaVuSans-32"/>
      <use x="206.160156" xlink:href="#DejaVuSans-83"/>
      <use x="269.636719" xlink:href="#DejaVuSans-83"/>
      <use x="333.113281" xlink:href="#DejaVuSans-79"/>
     </g>
    </g>
    <g id="line2d_34">
     <path d="M 199.074062 83.926688 
L 219.074062 83.926688 
" style="fill:none;stroke:#737373;stroke-linecap:square;stroke-width:1.5;"/>
    </g>
    <g id="line2d_35"/>
    <g id="text_18">
     <!-- FFT AAPL -->
     <g style="fill:#ffffff;" transform="translate(227.074062 87.426688)scale(0.1 -0.1)">
      <defs>
       <path d="M 9.8125 72.90625 
L 19.671875 72.90625 
L 19.671875 8.296875 
L 55.171875 8.296875 
L 55.171875 0 
L 9.8125 0 
z
" id="DejaVuSans-76"/>
      </defs>
      <use xlink:href="#DejaVuSans-70"/>
      <use x="57.519531" xlink:href="#DejaVuSans-70"/>
      <use x="113.289062" xlink:href="#DejaVuSans-84"/>
      <use x="174.373047" xlink:href="#DejaVuSans-32"/>
      <use x="206.160156" xlink:href="#DejaVuSans-65"/>
      <use x="277.318359" xlink:href="#DejaVuSans-65"/>
      <use x="345.726562" xlink:href="#DejaVuSans-80"/>
      <use x="406.029297" xlink:href="#DejaVuSans-76"/>
     </g>
    </g>
    <g id="line2d_36">
     <path d="M 199.074062 98.604813 
L 219.074062 98.604813 
" style="fill:none;stroke:#404040;stroke-linecap:square;stroke-width:1.5;"/>
    </g>
    <g id="line2d_37"/>
    <g id="text_19">
     <!-- FFT TSLA -->
     <g style="fill:#ffffff;" transform="translate(227.074062 102.104813)scale(0.1 -0.1)">
      <use xlink:href="#DejaVuSans-70"/>
      <use x="57.519531" xlink:href="#DejaVuSans-70"/>
      <use x="113.289062" xlink:href="#DejaVuSans-84"/>
      <use x="174.373047" xlink:href="#DejaVuSans-32"/>
      <use x="206.160156" xlink:href="#DejaVuSans-84"/>
      <use x="267.244141" xlink:href="#DejaVuSans-83"/>
      <use x="330.720703" xlink:href="#DejaVuSans-76"/>
      <use x="388.683594" xlink:href="#DejaVuSans-65"/>
     </g>
    </g>
    <g id="line2d_38">
     <path d="M 199.074062 113.282938 
L 219.074062 113.282938 
" style="fill:none;stroke:#40ff00;stroke-linecap:square;stroke-width:1.5;"/>
    </g>
    <g id="line2d_39"/>
    <g id="text_20">
     <!-- FFT KO -->
     <g style="fill:#ffffff;" transform="translate(227.074062 116.782938)scale(0.1 -0.1)">
      <defs>
       <path d="M 9.8125 72.90625 
L 19.671875 72.90625 
L 19.671875 42.09375 
L 52.390625 72.90625 
L 65.09375 72.90625 
L 28.90625 38.921875 
L 67.671875 0 
L 54.6875 0 
L 19.671875 35.109375 
L 19.671875 0 
L 9.8125 0 
z
" id="DejaVuSans-75"/>
      </defs>
      <use xlink:href="#DejaVuSans-70"/>
      <use x="57.519531" xlink:href="#DejaVuSans-70"/>
      <use x="113.289062" xlink:href="#DejaVuSans-84"/>
      <use x="174.373047" xlink:href="#DejaVuSans-32"/>
      <use x="206.160156" xlink:href="#DejaVuSans-75"/>
      <use x="266.236328" xlink:href="#DejaVuSans-79"/>
     </g>
    </g>
   </g>
  </g>
 </g>
 <defs>
  <clipPath id="pa8f7e1dfeb">
   <rect height="266.112" width="357.12" x="57.6" y="41.472"/>
  </clipPath>
 </defs>
</svg>
